%TF.GenerationSoftware,KiCad,Pcbnew,9.0.6*%
%TF.CreationDate,2025-12-27T23:18:09-08:00*%
%TF.ProjectId,kb,6b622e6b-6963-4616-945f-706362585858,V1.1*%
%TF.SameCoordinates,Original*%
%TF.FileFunction,Soldermask,Bot*%
%TF.FilePolarity,Negative*%
%FSLAX46Y46*%
G04 Gerber Fmt 4.6, Leading zero omitted, Abs format (unit mm)*
G04 Created by KiCad (PCBNEW 9.0.6) date 2025-12-27 23:18:09*
%MOMM*%
%LPD*%
G01*
G04 APERTURE LIST*
G04 Aperture macros list*
%AMRoundRect*
0 Rectangle with rounded corners*
0 $1 Rounding radius*
0 $2 $3 $4 $5 $6 $7 $8 $9 X,Y pos of 4 corners*
0 Add a 4 corners polygon primitive as box body*
4,1,4,$2,$3,$4,$5,$6,$7,$8,$9,$2,$3,0*
0 Add four circle primitives for the rounded corners*
1,1,$1+$1,$2,$3*
1,1,$1+$1,$4,$5*
1,1,$1+$1,$6,$7*
1,1,$1+$1,$8,$9*
0 Add four rect primitives between the rounded corners*
20,1,$1+$1,$2,$3,$4,$5,0*
20,1,$1+$1,$4,$5,$6,$7,0*
20,1,$1+$1,$6,$7,$8,$9,0*
20,1,$1+$1,$8,$9,$2,$3,0*%
G04 Aperture macros list end*
%ADD10R,1.000000X1.900000*%
%ADD11C,3.000000*%
%ADD12C,5.100000*%
%ADD13R,2.550000X2.550000*%
%ADD14R,2.271000X2.550000*%
%ADD15C,5.000000*%
%ADD16R,1.550000X2.550000*%
%ADD17C,3.200000*%
%ADD18RoundRect,0.225000X-0.375000X0.225000X-0.375000X-0.225000X0.375000X-0.225000X0.375000X0.225000X0*%
%ADD19RoundRect,0.250000X-1.500000X0.250000X-1.500000X-0.250000X1.500000X-0.250000X1.500000X0.250000X0*%
%ADD20RoundRect,0.250001X-1.449999X0.499999X-1.449999X-0.499999X1.449999X-0.499999X1.449999X0.499999X0*%
%ADD21C,0.900000*%
%ADD22RoundRect,0.102000X0.750000X-0.350000X0.750000X0.350000X-0.750000X0.350000X-0.750000X-0.350000X0*%
%ADD23RoundRect,0.102000X0.400000X-0.500000X0.400000X0.500000X-0.400000X0.500000X-0.400000X-0.500000X0*%
%ADD24RoundRect,0.225000X0.225000X0.375000X-0.225000X0.375000X-0.225000X-0.375000X0.225000X-0.375000X0*%
G04 APERTURE END LIST*
D10*
%TO.C,U1*%
X36576000Y-37463000D03*
X39116000Y-34163000D03*
X44196000Y-34163000D03*
X46736000Y-37463000D03*
X49276000Y-34163000D03*
X51816000Y-37463000D03*
X54356000Y-34163000D03*
X56896000Y-37463000D03*
X59436000Y-34163000D03*
X61976000Y-37463000D03*
X64516000Y-34163000D03*
X36576000Y-49405000D03*
X39116000Y-52705000D03*
X41656000Y-49405000D03*
X44196000Y-52705000D03*
X46736000Y-49405000D03*
X49276000Y-52705000D03*
X51816000Y-49405000D03*
X54356000Y-52705000D03*
X56896000Y-49405000D03*
X59436000Y-52705000D03*
X61976000Y-49405000D03*
X64516000Y-52705000D03*
X34036000Y-34163000D03*
X34036000Y-52705000D03*
%TD*%
D11*
%TO.C,SW8*%
X169431250Y-45181250D03*
D12*
X173831250Y-40481250D03*
D11*
X176431250Y-46231250D03*
D13*
X165556250Y-45181250D03*
X180306250Y-46231250D03*
%TD*%
D11*
%TO.C,SW53*%
X264681250Y-102331250D03*
D12*
X269081250Y-97631250D03*
D11*
X271681250Y-103381250D03*
D13*
X260806250Y-102331250D03*
X275556250Y-103381250D03*
%TD*%
D11*
%TO.C,SW1*%
X36081250Y-45181250D03*
D12*
X40481250Y-40481250D03*
D11*
X43081250Y-46231250D03*
D14*
X32345750Y-45181250D03*
D13*
X46956250Y-46231250D03*
%TD*%
D11*
%TO.C,SW6*%
X131331250Y-45181250D03*
D12*
X135731250Y-40481250D03*
D11*
X138331250Y-46231250D03*
D13*
X127456250Y-45181250D03*
X142206250Y-46231250D03*
%TD*%
D11*
%TO.C,SW52*%
X245631250Y-102331250D03*
D12*
X250031250Y-97631250D03*
D11*
X252631250Y-103381250D03*
D13*
X241756250Y-102331250D03*
X256506250Y-103381250D03*
%TD*%
D15*
%TO.C,REF\u002A\u002A*%
X57150000Y-57150000D03*
%TD*%
%TO.C,REF\u002A\u002A*%
X54768750Y-116681250D03*
%TD*%
D11*
%TO.C,SW51*%
X226581250Y-102331250D03*
D12*
X230981250Y-97631250D03*
D11*
X233581250Y-103381250D03*
D13*
X222706250Y-102331250D03*
X237456250Y-103381250D03*
%TD*%
D11*
%TO.C,SW3*%
X74181250Y-45181250D03*
D12*
X78581250Y-40481250D03*
D11*
X81181250Y-46231250D03*
D13*
X70306250Y-45181250D03*
X85056250Y-46231250D03*
%TD*%
D11*
%TO.C,SW32*%
X107518750Y-83281250D03*
D12*
X111918750Y-78581250D03*
D11*
X114518750Y-84331250D03*
D13*
X103643750Y-83281250D03*
X118393750Y-84331250D03*
%TD*%
D11*
%TO.C,SW54*%
X283731250Y-102331250D03*
D12*
X288131250Y-97631250D03*
D11*
X290731250Y-103381250D03*
D13*
X279856250Y-102331250D03*
X294606250Y-103381250D03*
%TD*%
D11*
%TO.C,SW63*%
X283731250Y-121381250D03*
D12*
X288131250Y-116681250D03*
D11*
X290731250Y-122431250D03*
D13*
X279856250Y-121381250D03*
X294606250Y-122431250D03*
%TD*%
D11*
%TO.C,SW40*%
X259918750Y-83281250D03*
D12*
X264318750Y-78581250D03*
D11*
X266918750Y-84331250D03*
D13*
X256043750Y-83281250D03*
X270793750Y-84331250D03*
%TD*%
D11*
%TO.C,SW49*%
X188481250Y-102331250D03*
D12*
X192881250Y-97631250D03*
D11*
X195481250Y-103381250D03*
D13*
X184606250Y-102331250D03*
X199356250Y-103381250D03*
%TD*%
D11*
%TO.C,SW55*%
X302781250Y-102331250D03*
D12*
X307181250Y-97631250D03*
D11*
X309781250Y-103381250D03*
D13*
X298906250Y-102331250D03*
X313656250Y-103381250D03*
%TD*%
D15*
%TO.C,REF\u002A\u002A*%
X150018750Y-116681250D03*
%TD*%
D11*
%TO.C,SW16*%
X64656250Y-64231250D03*
D12*
X69056250Y-59531250D03*
D11*
X71656250Y-65281250D03*
D13*
X60781250Y-64231250D03*
X75531250Y-65281250D03*
%TD*%
D11*
%TO.C,SW14*%
X293256250Y-45181250D03*
D12*
X297656250Y-40481250D03*
D11*
X300256250Y-46231250D03*
D16*
X289881250Y-45181250D03*
D13*
X304131250Y-46231250D03*
%TD*%
D11*
%TO.C,SW64*%
X302781250Y-121381250D03*
D12*
X307181250Y-116681250D03*
D11*
X309781250Y-122431250D03*
D13*
X298906250Y-121381250D03*
X313656250Y-122431250D03*
%TD*%
D11*
%TO.C,SW11*%
X226581250Y-45181250D03*
D12*
X230981250Y-40481250D03*
D11*
X233581250Y-46231250D03*
D13*
X222706250Y-45181250D03*
X237456250Y-46231250D03*
%TD*%
D11*
%TO.C,SW15*%
X40843750Y-64231250D03*
D12*
X45243750Y-59531250D03*
D11*
X47843750Y-65281250D03*
D13*
X36968750Y-64231250D03*
X51718750Y-65281250D03*
%TD*%
D11*
%TO.C,SW10*%
X207531250Y-45181250D03*
D12*
X211931250Y-40481250D03*
D11*
X214531250Y-46231250D03*
D13*
X203656250Y-45181250D03*
X218406250Y-46231250D03*
%TD*%
D11*
%TO.C,SW59*%
X157525000Y-121381250D03*
D12*
X161925000Y-116681250D03*
D11*
X164525000Y-122431250D03*
D13*
X153650000Y-121381250D03*
X168400000Y-122431250D03*
%TD*%
D11*
%TO.C,SW27*%
X274206250Y-64231250D03*
D12*
X278606250Y-59531250D03*
D11*
X281206250Y-65281250D03*
D13*
X270331250Y-64231250D03*
X285081250Y-65281250D03*
%TD*%
D11*
%TO.C,SW46*%
X131331250Y-102331250D03*
D12*
X135731250Y-97631250D03*
D11*
X138331250Y-103381250D03*
D13*
X127456250Y-102331250D03*
X142206250Y-103381250D03*
%TD*%
D11*
%TO.C,SW5*%
X112281250Y-45181250D03*
D12*
X116681250Y-40481250D03*
D11*
X119281250Y-46231250D03*
D13*
X108406250Y-45181250D03*
X123156250Y-46231250D03*
%TD*%
D11*
%TO.C,SW34*%
X145618750Y-83281250D03*
D12*
X150018750Y-78581250D03*
D11*
X152618750Y-84331250D03*
D13*
X141743750Y-83281250D03*
X156493750Y-84331250D03*
%TD*%
D15*
%TO.C,REF\u002A\u002A*%
X297656250Y-112141000D03*
%TD*%
D11*
%TO.C,SW31*%
X88468750Y-83281250D03*
D12*
X92868750Y-78581250D03*
D11*
X95468750Y-84331250D03*
D13*
X84593750Y-83281250D03*
X99343750Y-84331250D03*
%TD*%
D11*
%TO.C,SW4*%
X93231250Y-45181250D03*
D12*
X97631250Y-40481250D03*
D11*
X100231250Y-46231250D03*
D13*
X89356250Y-45181250D03*
X104106250Y-46231250D03*
%TD*%
D11*
%TO.C,SW37*%
X202768750Y-83281250D03*
D12*
X207168750Y-78581250D03*
D11*
X209768750Y-84331250D03*
D13*
X198893750Y-83281250D03*
X213643750Y-84331250D03*
%TD*%
D11*
%TO.C,SW9*%
X188481250Y-45181250D03*
D12*
X192881250Y-40481250D03*
D11*
X195481250Y-46231250D03*
D13*
X184606250Y-45181250D03*
X199356250Y-46231250D03*
%TD*%
D11*
%TO.C,SW24*%
X217056250Y-64231250D03*
D12*
X221456250Y-59531250D03*
D11*
X224056250Y-65281250D03*
D13*
X213181250Y-64231250D03*
X227931250Y-65281250D03*
%TD*%
D11*
%TO.C,SW26*%
X255156250Y-64231250D03*
D12*
X259556250Y-59531250D03*
D11*
X262156250Y-65281250D03*
D13*
X251281250Y-64231250D03*
X266031250Y-65281250D03*
%TD*%
D17*
%TO.C,REF\u002A\u002A*%
X121443750Y-73818750D03*
%TD*%
D11*
%TO.C,SW17*%
X83706250Y-64231250D03*
D12*
X88106250Y-59531250D03*
D11*
X90706250Y-65281250D03*
D13*
X79831250Y-64231250D03*
X94581250Y-65281250D03*
%TD*%
D11*
%TO.C,SW36*%
X183718750Y-83281250D03*
D12*
X188118750Y-78581250D03*
D11*
X190718750Y-84331250D03*
D13*
X179843750Y-83281250D03*
X194593750Y-84331250D03*
%TD*%
D11*
%TO.C,SW28*%
X298018750Y-64231250D03*
D12*
X302418750Y-59531250D03*
D11*
X305018750Y-65281250D03*
D13*
X294143750Y-64231250D03*
X308893750Y-65281250D03*
%TD*%
D11*
%TO.C,SW56*%
X38462500Y-121381250D03*
D12*
X42862500Y-116681250D03*
D11*
X45462500Y-122431250D03*
D13*
X34587500Y-121381250D03*
X49337500Y-122431250D03*
%TD*%
D11*
%TO.C,SW50*%
X207531250Y-102331250D03*
D12*
X211931250Y-97631250D03*
D11*
X214531250Y-103381250D03*
D13*
X203656250Y-102331250D03*
X218406250Y-103381250D03*
%TD*%
D11*
%TO.C,SW21*%
X159906250Y-64231250D03*
D12*
X164306250Y-59531250D03*
D11*
X166906250Y-65281250D03*
D13*
X156031250Y-64231250D03*
X170781250Y-65281250D03*
%TD*%
D11*
%TO.C,SW2*%
X55131250Y-45181250D03*
D12*
X59531250Y-40481250D03*
D11*
X62131250Y-46231250D03*
D13*
X51256250Y-45181250D03*
X66006250Y-46231250D03*
%TD*%
D11*
%TO.C,SW30*%
X69418750Y-83281250D03*
D12*
X73818750Y-78581250D03*
D11*
X76418750Y-84331250D03*
D13*
X65543750Y-83281250D03*
X80293750Y-84331250D03*
%TD*%
D11*
%TO.C,SW7*%
X150381250Y-45181250D03*
D12*
X154781250Y-40481250D03*
D11*
X157381250Y-46231250D03*
D13*
X146506250Y-45181250D03*
X161256250Y-46231250D03*
%TD*%
D11*
%TO.C,SW22*%
X178956250Y-64231250D03*
D12*
X183356250Y-59531250D03*
D11*
X185956250Y-65281250D03*
D13*
X175081250Y-64231250D03*
X189831250Y-65281250D03*
%TD*%
D11*
%TO.C,SW39*%
X240868750Y-83281250D03*
D12*
X245268750Y-78581250D03*
D11*
X247868750Y-84331250D03*
D13*
X236993750Y-83281250D03*
X251743750Y-84331250D03*
%TD*%
D11*
%TO.C,SW61*%
X245631250Y-121381250D03*
D12*
X250031250Y-116681250D03*
D11*
X252631250Y-122431250D03*
D13*
X241756250Y-121381250D03*
X256506250Y-122431250D03*
%TD*%
D11*
%TO.C,SW58*%
X86087500Y-121381250D03*
D12*
X90487500Y-116681250D03*
D11*
X93087500Y-122431250D03*
D13*
X82212500Y-121381250D03*
X96962500Y-122431250D03*
%TD*%
D11*
%TO.C,SW23*%
X198006250Y-64231250D03*
D12*
X202406250Y-59531250D03*
D11*
X205006250Y-65281250D03*
D13*
X194131250Y-64231250D03*
X208881250Y-65281250D03*
%TD*%
D11*
%TO.C,SW19*%
X121806250Y-64231250D03*
D12*
X126206250Y-59531250D03*
D11*
X128806250Y-65281250D03*
D13*
X117931250Y-64231250D03*
X132681250Y-65281250D03*
%TD*%
D11*
%TO.C,SW42*%
X45606250Y-102331250D03*
D12*
X50006250Y-97631250D03*
D11*
X52606250Y-103381250D03*
D16*
X42231250Y-102331250D03*
D13*
X56481250Y-103381250D03*
%TD*%
D11*
%TO.C,SW38*%
X221818750Y-83281250D03*
D12*
X226218750Y-78581250D03*
D11*
X228818750Y-84331250D03*
D13*
X217943750Y-83281250D03*
X232693750Y-84331250D03*
%TD*%
D11*
%TO.C,SW43*%
X74181250Y-102331250D03*
D12*
X78581250Y-97631250D03*
D11*
X81181250Y-103381250D03*
D13*
X70306250Y-102331250D03*
X85056250Y-103381250D03*
%TD*%
D11*
%TO.C,SW57*%
X62275000Y-121381250D03*
D12*
X66675000Y-116681250D03*
D11*
X69275000Y-122431250D03*
D13*
X58400000Y-121381250D03*
X73150000Y-122431250D03*
%TD*%
D11*
%TO.C,SW44*%
X93231250Y-102331250D03*
D12*
X97631250Y-97631250D03*
D11*
X100231250Y-103381250D03*
D13*
X89356250Y-102331250D03*
X104106250Y-103381250D03*
%TD*%
D11*
%TO.C,SW20*%
X140856250Y-64231250D03*
D12*
X145256250Y-59531250D03*
D11*
X147856250Y-65281250D03*
D13*
X136981250Y-64231250D03*
X151731250Y-65281250D03*
%TD*%
D11*
%TO.C,SW12*%
X245631250Y-45181250D03*
D12*
X250031250Y-40481250D03*
D11*
X252631250Y-46231250D03*
D13*
X241756250Y-45181250D03*
X256506250Y-46231250D03*
%TD*%
D11*
%TO.C,SW35*%
X164668750Y-83281250D03*
D12*
X169068750Y-78581250D03*
D11*
X171668750Y-84331250D03*
D13*
X160793750Y-83281250D03*
X175543750Y-84331250D03*
%TD*%
D11*
%TO.C,SW45*%
X112281250Y-102331250D03*
D12*
X116681250Y-97631250D03*
D11*
X119281250Y-103381250D03*
D13*
X108406250Y-102331250D03*
X123156250Y-103381250D03*
%TD*%
D11*
%TO.C,SW18*%
X102756250Y-64231250D03*
D12*
X107156250Y-59531250D03*
D11*
X109756250Y-65281250D03*
D13*
X98881250Y-64231250D03*
X113631250Y-65281250D03*
%TD*%
D17*
%TO.C,REF\u002A\u002A*%
X216693750Y-73818750D03*
%TD*%
%TO.C,REF\u002A\u002A*%
X164306250Y-35718750D03*
%TD*%
D11*
%TO.C,SW62*%
X264681250Y-121381250D03*
D12*
X269081250Y-116681250D03*
D11*
X271681250Y-122431250D03*
D13*
X260806250Y-121381250D03*
X275556250Y-122431250D03*
%TD*%
D11*
%TO.C,SW33*%
X126568750Y-83281250D03*
D12*
X130968750Y-78581250D03*
D11*
X133568750Y-84331250D03*
D13*
X122693750Y-83281250D03*
X137443750Y-84331250D03*
%TD*%
D11*
%TO.C,SW29*%
X43225000Y-83281250D03*
D12*
X47625000Y-78581250D03*
D11*
X50225000Y-84331250D03*
D13*
X39350000Y-83281250D03*
X54100000Y-84331250D03*
%TD*%
D11*
%TO.C,SW13*%
X264681250Y-45181250D03*
D12*
X269081250Y-40481250D03*
D11*
X271681250Y-46231250D03*
D13*
X260806250Y-45181250D03*
X275556250Y-46231250D03*
%TD*%
D11*
%TO.C,SW47*%
X150381250Y-102331250D03*
D12*
X154781250Y-97631250D03*
D11*
X157381250Y-103381250D03*
D13*
X146506250Y-102331250D03*
X161256250Y-103381250D03*
%TD*%
D11*
%TO.C,SW60*%
X226581250Y-121381250D03*
D12*
X230981250Y-116681250D03*
D11*
X233581250Y-122431250D03*
D13*
X222706250Y-121381250D03*
X237456250Y-122431250D03*
%TD*%
D15*
%TO.C,REF\u002A\u002A*%
X290512500Y-57150000D03*
%TD*%
D11*
%TO.C,SW41*%
X290875000Y-83281250D03*
D12*
X295275000Y-78581250D03*
D11*
X297875000Y-84331250D03*
D16*
X287500000Y-83281250D03*
D13*
X301750000Y-84331250D03*
%TD*%
D11*
%TO.C,SW25*%
X236106250Y-64231250D03*
D12*
X240506250Y-59531250D03*
D11*
X243106250Y-65281250D03*
D13*
X232231250Y-64231250D03*
X246981250Y-65281250D03*
%TD*%
D11*
%TO.C,SW48*%
X169431250Y-102331250D03*
D12*
X173831250Y-97631250D03*
D11*
X176431250Y-103381250D03*
D13*
X165556250Y-102331250D03*
X180306250Y-103381250D03*
%TD*%
D18*
%TO.C,D46*%
X142875000Y-95981250D03*
X142875000Y-99281250D03*
%TD*%
%TO.C,D17*%
X95106250Y-57881250D03*
X95106250Y-61181250D03*
%TD*%
%TO.C,D43*%
X85725000Y-95981250D03*
X85725000Y-99281250D03*
%TD*%
%TO.C,D49*%
X200025000Y-95981250D03*
X200025000Y-99281250D03*
%TD*%
%TO.C,D62*%
X276225000Y-115031250D03*
X276225000Y-118331250D03*
%TD*%
%TO.C,D22*%
X190500000Y-57881250D03*
X190500000Y-61181250D03*
%TD*%
%TO.C,D57*%
X73818750Y-115031250D03*
X73818750Y-118331250D03*
%TD*%
%TO.C,D11*%
X238125000Y-38831250D03*
X238125000Y-42131250D03*
%TD*%
%TO.C,D5*%
X123825000Y-38831250D03*
X123825000Y-42131250D03*
%TD*%
%TO.C,D38*%
X233362500Y-76931250D03*
X233362500Y-80231250D03*
%TD*%
%TO.C,D45*%
X123825000Y-95981250D03*
X123825000Y-99281250D03*
%TD*%
%TO.C,D16*%
X76200000Y-57881250D03*
X76200000Y-61181250D03*
%TD*%
%TO.C,D6*%
X142875000Y-38831250D03*
X142875000Y-42131250D03*
%TD*%
%TO.C,D36*%
X195262500Y-76931250D03*
X195262500Y-80231250D03*
%TD*%
%TO.C,D44*%
X104775000Y-95981250D03*
X104775000Y-99281250D03*
%TD*%
%TO.C,D61*%
X257175000Y-115031250D03*
X257175000Y-118331250D03*
%TD*%
%TO.C,D53*%
X276225000Y-95981250D03*
X276225000Y-99281250D03*
%TD*%
%TO.C,D42*%
X57150000Y-95981250D03*
X57150000Y-99281250D03*
%TD*%
%TO.C,D34*%
X157162500Y-76931250D03*
X157162500Y-80231250D03*
%TD*%
%TO.C,D30*%
X80962500Y-76931250D03*
X80962500Y-80231250D03*
%TD*%
%TO.C,D25*%
X247650000Y-57881250D03*
X247650000Y-61181250D03*
%TD*%
%TO.C,D37*%
X214312500Y-76931250D03*
X214312500Y-80231250D03*
%TD*%
%TO.C,D33*%
X138112500Y-76931250D03*
X138112500Y-80231250D03*
%TD*%
%TO.C,D9*%
X200025000Y-38831250D03*
X200025000Y-42131250D03*
%TD*%
%TO.C,D52*%
X257175000Y-95981250D03*
X257175000Y-99281250D03*
%TD*%
D19*
%TO.C,J1*%
X85852000Y-51245000D03*
X85852000Y-53245000D03*
D20*
X91602000Y-48895000D03*
X91602000Y-55595000D03*
%TD*%
D18*
%TO.C,D8*%
X180975000Y-38831250D03*
X180975000Y-42131250D03*
%TD*%
%TO.C,D55*%
X314325000Y-95981250D03*
X314325000Y-99281250D03*
%TD*%
%TO.C,D54*%
X295275000Y-95981250D03*
X295275000Y-99281250D03*
%TD*%
%TO.C,D7*%
X161925000Y-38831250D03*
X161925000Y-42131250D03*
%TD*%
%TO.C,D31*%
X100012500Y-76931250D03*
X100012500Y-80231250D03*
%TD*%
D21*
%TO.C,SW0*%
X32766000Y-60428000D03*
X32766000Y-57428000D03*
D22*
X34516000Y-61178000D03*
X34516000Y-58178000D03*
X34516000Y-56678000D03*
D23*
X33866000Y-62578000D03*
X33866000Y-55278000D03*
X31666000Y-62578000D03*
X31666000Y-55278000D03*
%TD*%
D24*
%TO.C,D1*%
X46893750Y-42862500D03*
X43593750Y-42862500D03*
%TD*%
D18*
%TO.C,D18*%
X114156250Y-57881250D03*
X114156250Y-61181250D03*
%TD*%
%TO.C,D20*%
X152256250Y-57881250D03*
X152256250Y-61181250D03*
%TD*%
%TO.C,D40*%
X271462500Y-76931250D03*
X271462500Y-80231250D03*
%TD*%
%TO.C,D29*%
X54768750Y-76931250D03*
X54768750Y-80231250D03*
%TD*%
%TO.C,D58*%
X97631250Y-115031250D03*
X97631250Y-118331250D03*
%TD*%
%TO.C,D48*%
X180975000Y-95981250D03*
X180975000Y-99281250D03*
%TD*%
%TO.C,D50*%
X219075000Y-95981250D03*
X219075000Y-99281250D03*
%TD*%
%TO.C,D10*%
X219075000Y-38831250D03*
X219075000Y-42131250D03*
%TD*%
%TO.C,D3*%
X85725000Y-38831250D03*
X85725000Y-42131250D03*
%TD*%
%TO.C,D4*%
X104775000Y-38831250D03*
X104775000Y-42131250D03*
%TD*%
%TO.C,D15*%
X52387500Y-57881250D03*
X52387500Y-61181250D03*
%TD*%
%TO.C,D39*%
X252412500Y-76931250D03*
X252412500Y-80231250D03*
%TD*%
%TO.C,D24*%
X228600000Y-57881250D03*
X228600000Y-61181250D03*
%TD*%
%TO.C,D12*%
X257175000Y-38831250D03*
X257175000Y-42131250D03*
%TD*%
%TO.C,D35*%
X176212500Y-76931250D03*
X176212500Y-80231250D03*
%TD*%
%TO.C,D64*%
X314325000Y-115031250D03*
X314325000Y-118331250D03*
%TD*%
%TO.C,D41*%
X302418750Y-76931250D03*
X302418750Y-80231250D03*
%TD*%
%TO.C,D63*%
X295275000Y-115317000D03*
X295275000Y-118617000D03*
%TD*%
%TO.C,D21*%
X171450000Y-57881250D03*
X171450000Y-61181250D03*
%TD*%
%TO.C,D13*%
X276225000Y-38831250D03*
X276225000Y-42131250D03*
%TD*%
%TO.C,D56*%
X50006250Y-115031250D03*
X50006250Y-118331250D03*
%TD*%
%TO.C,D59*%
X169068750Y-115031250D03*
X169068750Y-118331250D03*
%TD*%
%TO.C,D14*%
X304800000Y-38831250D03*
X304800000Y-42131250D03*
%TD*%
D24*
%TO.C,D2*%
X65943750Y-42862500D03*
X62643750Y-42862500D03*
%TD*%
D18*
%TO.C,D26*%
X266700000Y-57881250D03*
X266700000Y-61181250D03*
%TD*%
%TO.C,D19*%
X133206250Y-57881250D03*
X133206250Y-61181250D03*
%TD*%
%TO.C,D23*%
X209550000Y-57881250D03*
X209550000Y-61181250D03*
%TD*%
%TO.C,D28*%
X309562500Y-57881250D03*
X309562500Y-61181250D03*
%TD*%
%TO.C,D51*%
X238125000Y-95981250D03*
X238125000Y-99281250D03*
%TD*%
%TO.C,D32*%
X119062500Y-76931250D03*
X119062500Y-80231250D03*
%TD*%
%TO.C,D27*%
X285750000Y-57881250D03*
X285750000Y-61181250D03*
%TD*%
%TO.C,D60*%
X238125000Y-115031250D03*
X238125000Y-118331250D03*
%TD*%
%TO.C,D47*%
X161925000Y-95981250D03*
X161925000Y-99281250D03*
%TD*%
M02*
