%TF.GenerationSoftware,KiCad,Pcbnew,9.0.6*%
%TF.CreationDate,2025-12-27T23:18:09-08:00*%
%TF.ProjectId,kb,6b622e6b-6963-4616-945f-706362585858,V1.1*%
%TF.SameCoordinates,Original*%
%TF.FileFunction,Profile,NP*%
%FSLAX46Y46*%
G04 Gerber Fmt 4.6, Leading zero omitted, Abs format (unit mm)*
G04 Created by KiCad (PCBNEW 9.0.6) date 2025-12-27 23:18:09*
%MOMM*%
%LPD*%
G01*
G04 APERTURE LIST*
%TA.AperFunction,Profile*%
%ADD10C,0.050000*%
%TD*%
%TA.AperFunction,Profile*%
%ADD11C,0.120000*%
%TD*%
G04 APERTURE END LIST*
D10*
X30956250Y-28575000D02*
X30956250Y-126206250D01*
X316706250Y-126206250D02*
X30956250Y-126206250D01*
X316706250Y-28575000D02*
X316706250Y-126206250D01*
X30956250Y-28575000D02*
X316706250Y-28575000D01*
%TO.C,REF\u002A\u002A*%
D11*
X115175000Y-122881250D02*
X108675000Y-122881250D01*
X108675000Y-106881250D01*
X115175000Y-106881250D01*
X115175000Y-122881250D01*
X208675000Y-122881250D02*
X215175000Y-122881250D01*
X215175000Y-106881250D01*
X208675000Y-106881250D01*
X208675000Y-122881250D01*
X41256250Y-103831250D02*
X34756250Y-103831250D01*
X34756250Y-87831250D01*
X41256250Y-87831250D01*
X41256250Y-103831250D01*
X58756250Y-103831250D02*
X65256250Y-103831250D01*
X65256250Y-87831250D01*
X58756250Y-87831250D01*
X58756250Y-103831250D01*
X286525000Y-84781250D02*
X280025000Y-84781250D01*
X280025000Y-68781250D01*
X286525000Y-68781250D01*
X286525000Y-84781250D01*
X304025000Y-84781250D02*
X310525000Y-84781250D01*
X310525000Y-68781250D01*
X304025000Y-68781250D01*
X304025000Y-84781250D01*
X288906250Y-46681250D02*
X282406250Y-46681250D01*
X282406250Y-30681250D01*
X288906250Y-30681250D01*
X288906250Y-46681250D01*
X306406250Y-46681250D02*
X312906250Y-46681250D01*
X312906250Y-30681250D01*
X306406250Y-30681250D01*
X306406250Y-46681250D01*
%TD*%
M02*
