%TF.GenerationSoftware,KiCad,Pcbnew,9.0.6*%
%TF.CreationDate,2025-12-27T23:18:09-08:00*%
%TF.ProjectId,kb,6b622e6b-6963-4616-945f-706362585858,V1.1*%
%TF.SameCoordinates,Original*%
%TF.FileFunction,Copper,L1,Top*%
%TF.FilePolarity,Positive*%
%FSLAX46Y46*%
G04 Gerber Fmt 4.6, Leading zero omitted, Abs format (unit mm)*
G04 Created by KiCad (PCBNEW 9.0.6) date 2025-12-27 23:18:09*
%MOMM*%
%LPD*%
G01*
G04 APERTURE LIST*
G04 Aperture macros list*
%AMRoundRect*
0 Rectangle with rounded corners*
0 $1 Rounding radius*
0 $2 $3 $4 $5 $6 $7 $8 $9 X,Y pos of 4 corners*
0 Add a 4 corners polygon primitive as box body*
4,1,4,$2,$3,$4,$5,$6,$7,$8,$9,$2,$3,0*
0 Add four circle primitives for the rounded corners*
1,1,$1+$1,$2,$3*
1,1,$1+$1,$4,$5*
1,1,$1+$1,$6,$7*
1,1,$1+$1,$8,$9*
0 Add four rect primitives between the rounded corners*
20,1,$1+$1,$2,$3,$4,$5,0*
20,1,$1+$1,$4,$5,$6,$7,0*
20,1,$1+$1,$6,$7,$8,$9,0*
20,1,$1+$1,$8,$9,$2,$3,0*%
G04 Aperture macros list end*
%TA.AperFunction,ComponentPad*%
%ADD10C,1.800000*%
%TD*%
%TA.AperFunction,ComponentPad*%
%ADD11RoundRect,0.450000X-0.450000X0.450000X-0.450000X-0.450000X0.450000X-0.450000X0.450000X0.450000X0*%
%TD*%
%TA.AperFunction,ViaPad*%
%ADD12C,0.600000*%
%TD*%
%TA.AperFunction,Conductor*%
%ADD13C,0.127000*%
%TD*%
%TA.AperFunction,Conductor*%
%ADD14C,0.254000*%
%TD*%
%TA.AperFunction,Conductor*%
%ADD15C,0.200000*%
%TD*%
G04 APERTURE END LIST*
D10*
%TO.P,U1,1,P0.06*%
%TO.N,/ROW1A*%
X36576000Y-35814000D03*
%TO.P,U1,2,P0.08*%
%TO.N,/ROW1B*%
X39116000Y-35814000D03*
D11*
%TO.P,U1,3,GND*%
%TO.N,GND*%
X41656000Y-35814000D03*
%TO.P,U1,4,GND*%
X44196000Y-35814000D03*
D10*
%TO.P,U1,5,P0.17*%
%TO.N,/COL1*%
X46736000Y-35814000D03*
%TO.P,U1,6,P0.20*%
%TO.N,/COL2*%
X49276000Y-35814000D03*
%TO.P,U1,7,P0.22*%
%TO.N,/COL3*%
X51816000Y-35814000D03*
%TO.P,U1,8,P0.24*%
%TO.N,/COL4*%
X54356000Y-35814000D03*
%TO.P,U1,9,P1.00*%
%TO.N,/COL5*%
X56896000Y-35814000D03*
%TO.P,U1,10,P0.11*%
%TO.N,/COL6*%
X59436000Y-35814000D03*
%TO.P,U1,11,P1.04-LF*%
%TO.N,/COL7*%
X61976000Y-35814000D03*
%TO.P,U1,12,P1.06-LF*%
%TO.N,unconnected-(U1-P1.06-LF-Pad12)*%
X64516000Y-35814000D03*
%TO.P,U1,13,BAT+*%
%TO.N,Net-(J1-Pin_2)*%
X36576000Y-51054000D03*
D11*
%TO.P,U1,14,GND*%
%TO.N,GND*%
X39116000Y-51054000D03*
D10*
%TO.P,U1,15,RST*%
%TO.N,unconnected-(U1-RST-Pad15)*%
X41656000Y-51054000D03*
%TO.P,U1,16,3V3*%
%TO.N,unconnected-(U1-3V3-Pad16)*%
X44196000Y-51054000D03*
%TO.P,U1,17,P0.31-LF*%
%TO.N,/ROW5A*%
X46736000Y-51054000D03*
%TO.P,U1,18,P0.29-LF*%
%TO.N,/ROW4A*%
X49276000Y-51054000D03*
%TO.P,U1,19,P0.02-LF*%
%TO.N,/ROW3A*%
X51816000Y-51054000D03*
%TO.P,U1,20,P1.15-LF*%
%TO.N,/ROW2A*%
X54356000Y-51054000D03*
%TO.P,U1,21,P1.13-LF*%
%TO.N,/ROW5B*%
X56896000Y-51054000D03*
%TO.P,U1,22,P1.11-LF*%
%TO.N,/ROW4B*%
X59436000Y-51054000D03*
%TO.P,U1,23,P0.10-LF*%
%TO.N,/ROW3B*%
X61976000Y-51054000D03*
%TO.P,U1,24,P0.09-LF*%
%TO.N,/ROW2B*%
X64516000Y-51054000D03*
D11*
%TO.P,U1,28,GND*%
%TO.N,GND*%
X34036000Y-35814000D03*
D10*
%TO.P,U1,29,BAT+*%
%TO.N,Net-(J1-Pin_2)*%
X34036000Y-51054000D03*
%TD*%
D12*
%TO.N,/ROW1B*%
X241808000Y-48514000D03*
X203708000Y-48514000D03*
X222758000Y-48514000D03*
X289433000Y-48514000D03*
X260858000Y-48514000D03*
X184658000Y-48514000D03*
X165608000Y-48514000D03*
%TO.N,/ROW2A*%
X79883000Y-67691000D03*
X117983000Y-67691000D03*
X156083000Y-67691000D03*
X137033000Y-67691000D03*
X37084000Y-67564000D03*
X60833000Y-67691000D03*
X98933000Y-67691000D03*
%TO.N,/ROW2B*%
X213233000Y-67564000D03*
X294132000Y-67564000D03*
X251333000Y-67564000D03*
X232283000Y-67564000D03*
X194183000Y-67564000D03*
X175133000Y-67564000D03*
X270383000Y-67564000D03*
%TO.N,/ROW3A*%
X141732000Y-86614000D03*
X160782000Y-86614000D03*
X122682000Y-86614000D03*
X84582000Y-86614000D03*
X103632000Y-86614000D03*
X65532000Y-86614000D03*
X39370000Y-86614000D03*
%TO.N,/ROW3B*%
X217932000Y-86614000D03*
X179832000Y-86614000D03*
X236982000Y-86614000D03*
X256032000Y-86614000D03*
X198882000Y-86614000D03*
X287020000Y-86614000D03*
%TO.N,/ROW4A*%
X108458000Y-105664000D03*
X70358000Y-105664000D03*
X127508000Y-105664000D03*
X165608000Y-105664000D03*
X89408000Y-105664000D03*
X146558000Y-105664000D03*
X41910000Y-105664000D03*
%TO.N,/ROW4B*%
X241808000Y-105664000D03*
X279908000Y-105664000D03*
X260858000Y-105664000D03*
X203708000Y-104902000D03*
X184658000Y-104394000D03*
X222758000Y-105664000D03*
X298958000Y-105664000D03*
%TO.N,/ROW5A*%
X34544000Y-124714000D03*
X58420000Y-124714000D03*
X82169000Y-124714000D03*
X149098000Y-121412000D03*
%TO.N,/ROW5B*%
X279908000Y-124714000D03*
X241808000Y-123952000D03*
X222758000Y-123444000D03*
X298958000Y-124714000D03*
X260858000Y-124206000D03*
%TO.N,Net-(J1-Pin_1)*%
X38354000Y-58928000D03*
X83058000Y-50507997D03*
%TO.N,Net-(J1-Pin_2)*%
X83058000Y-51308000D03*
%TD*%
D13*
%TO.N,/ROW1B*%
X165608000Y-48514000D02*
X289433000Y-48514000D01*
D14*
%TO.N,/ROW2A*%
X47620893Y-53084000D02*
X52326000Y-53084000D01*
X37084000Y-67564000D02*
X37211000Y-67691000D01*
X37211000Y-67691000D02*
X156083000Y-67691000D01*
X52326000Y-53084000D02*
X54356000Y-51054000D01*
X37084000Y-63620893D02*
X47620893Y-53084000D01*
X37084000Y-67564000D02*
X37084000Y-63620893D01*
D15*
%TO.N,/ROW2B*%
X170113750Y-52003750D02*
X65465750Y-52003750D01*
D14*
X294132000Y-67564000D02*
X175133000Y-67564000D01*
D15*
X175133000Y-67564000D02*
X175133000Y-57023000D01*
X175133000Y-57023000D02*
X170113750Y-52003750D01*
X65465750Y-52003750D02*
X64516000Y-51054000D01*
%TO.N,/ROW3A*%
X34556250Y-65392750D02*
X34556250Y-81800250D01*
D14*
X39370000Y-86614000D02*
X160782000Y-86614000D01*
D15*
X47293000Y-52656000D02*
X50214000Y-52656000D01*
X50214000Y-52656000D02*
X51816000Y-51054000D01*
D14*
X51689000Y-50927000D02*
X51689000Y-50800000D01*
D15*
X34556250Y-65392750D02*
X47293000Y-52656000D01*
X34556250Y-81800250D02*
X39370000Y-86614000D01*
%TO.N,/ROW3B*%
X179832000Y-86614000D02*
X174498000Y-81280000D01*
X174498000Y-57150000D02*
X169759000Y-52411000D01*
X63333000Y-52411000D02*
X61976000Y-51054000D01*
D14*
X179832000Y-86614000D02*
X287020000Y-86614000D01*
D15*
X174498000Y-81280000D02*
X174498000Y-57150000D01*
X169759000Y-52411000D02*
X63333000Y-52411000D01*
%TO.N,/ROW4A*%
X41910000Y-105664000D02*
X35739058Y-105664000D01*
X34155250Y-104080192D02*
X34155250Y-65226650D01*
D14*
X165608000Y-105664000D02*
X41910000Y-105664000D01*
D15*
X47126900Y-52255000D02*
X48075000Y-52255000D01*
X48075000Y-52255000D02*
X49276000Y-51054000D01*
X35739058Y-105664000D02*
X34155250Y-104080192D01*
X34155250Y-65226650D02*
X47126900Y-52255000D01*
D14*
%TO.N,/ROW4B*%
X203350750Y-105259250D02*
X185523250Y-105259250D01*
D15*
X184658000Y-92456000D02*
X174097000Y-81895000D01*
X184658000Y-104394000D02*
X184658000Y-92456000D01*
D14*
X203708000Y-104902000D02*
X203350750Y-105259250D01*
X185523250Y-105259250D02*
X184658000Y-104394000D01*
D15*
X174097000Y-81895000D02*
X174097000Y-57316100D01*
X174097000Y-57316100D02*
X169592900Y-52812000D01*
X169592900Y-52812000D02*
X61194000Y-52812000D01*
D14*
X298958000Y-105664000D02*
X204470000Y-105664000D01*
X204470000Y-105664000D02*
X203708000Y-104902000D01*
D15*
X61194000Y-52812000D02*
X59436000Y-51054000D01*
D14*
%TO.N,/ROW5A*%
X58420000Y-124714000D02*
X82169000Y-124714000D01*
X34544000Y-124714000D02*
X58420000Y-124714000D01*
D15*
X34544000Y-124714000D02*
X33754250Y-123924250D01*
X33754250Y-65060550D02*
X46736000Y-52078800D01*
X46736000Y-52078800D02*
X46736000Y-51054000D01*
D14*
X82169000Y-124714000D02*
X145796000Y-124714000D01*
D15*
X33754250Y-123924250D02*
X33754250Y-65060550D01*
D14*
X145796000Y-124714000D02*
X149098000Y-121412000D01*
D15*
%TO.N,/ROW5B*%
X169426800Y-53213000D02*
X59055000Y-53213000D01*
X59055000Y-53213000D02*
X56896000Y-51054000D01*
X173696000Y-57482200D02*
X169426800Y-53213000D01*
D14*
X261366000Y-124714000D02*
X260858000Y-124206000D01*
X241808000Y-123952000D02*
X241450750Y-124309250D01*
X241450750Y-124309250D02*
X223623250Y-124309250D01*
D15*
X173696000Y-82061100D02*
X173696000Y-57482200D01*
X203112057Y-123698000D02*
X184057000Y-104642943D01*
X222758000Y-123444000D02*
X222504000Y-123698000D01*
D14*
X260754750Y-124309250D02*
X242165250Y-124309250D01*
D15*
X222504000Y-123698000D02*
X203112057Y-123698000D01*
D14*
X242165250Y-124309250D02*
X241808000Y-123952000D01*
D15*
X184057000Y-92422100D02*
X173696000Y-82061100D01*
D14*
X298958000Y-124714000D02*
X261366000Y-124714000D01*
X260858000Y-124206000D02*
X260754750Y-124309250D01*
D15*
X184057000Y-104642943D02*
X184057000Y-92422100D01*
D14*
X223623250Y-124309250D02*
X222758000Y-123444000D01*
D15*
%TO.N,GND*%
X39116000Y-51054000D02*
X34036000Y-45974000D01*
X34036000Y-45974000D02*
X34036000Y-35814000D01*
D13*
%TO.N,Net-(J1-Pin_1)*%
X82439503Y-49889500D02*
X46253648Y-49889500D01*
X45466000Y-50677148D02*
X45466000Y-52833320D01*
X45466000Y-52833320D02*
X39371320Y-58928000D01*
X46253648Y-49889500D02*
X45466000Y-50677148D01*
X83058000Y-50507997D02*
X82439503Y-49889500D01*
X39371320Y-58928000D02*
X38354000Y-58928000D01*
%TO.N,Net-(J1-Pin_2)*%
X37740500Y-52218500D02*
X36576000Y-51054000D01*
X40280500Y-51807144D02*
X39869144Y-52218500D01*
X82493587Y-49145260D02*
X41436096Y-49145260D01*
X39869144Y-52218500D02*
X37740500Y-52218500D01*
X83622500Y-50274173D02*
X82493587Y-49145260D01*
X83622500Y-50743500D02*
X83622500Y-50274173D01*
X40280500Y-50300856D02*
X40280500Y-51807144D01*
X41436096Y-49145260D02*
X40280500Y-50300856D01*
X83058000Y-51308000D02*
X83622500Y-50743500D01*
%TD*%
M02*
