%TF.GenerationSoftware,KiCad,Pcbnew,9.0.6*%
%TF.CreationDate,2025-12-27T23:18:09-08:00*%
%TF.ProjectId,kb,6b622e6b-6963-4616-945f-706362585858,V1.1*%
%TF.SameCoordinates,Original*%
%TF.FileFunction,Legend,Top*%
%TF.FilePolarity,Positive*%
%FSLAX46Y46*%
G04 Gerber Fmt 4.6, Leading zero omitted, Abs format (unit mm)*
G04 Created by KiCad (PCBNEW 9.0.6) date 2025-12-27 23:18:09*
%MOMM*%
%LPD*%
G01*
G04 APERTURE LIST*
%ADD10C,0.500000*%
%ADD11C,0.300000*%
%ADD12C,0.150000*%
G04 APERTURE END LIST*
D10*
G36*
X172029221Y-116630750D02*
G01*
X172029221Y-112034893D01*
X172595804Y-112034893D01*
X172595804Y-114011886D01*
X173275593Y-114011886D01*
X174295551Y-112034893D01*
X174912691Y-112034893D01*
X173773207Y-114250939D01*
X174975614Y-116630750D01*
X174327150Y-116630750D01*
X173256908Y-114509226D01*
X172595804Y-114509226D01*
X172595804Y-116630750D01*
X172029221Y-116630750D01*
G37*
G36*
X177430576Y-112057142D02*
G01*
X177694287Y-112119504D01*
X177915206Y-112217523D01*
X178100335Y-112349783D01*
X178253205Y-112518527D01*
X178363290Y-112716375D01*
X178431933Y-112949119D01*
X178456167Y-113224936D01*
X178431308Y-113452295D01*
X178357558Y-113662562D01*
X178232501Y-113860761D01*
X178068077Y-114026190D01*
X177875876Y-114142705D01*
X177650257Y-114213295D01*
X177650257Y-114232254D01*
X177825263Y-114267713D01*
X177982749Y-114330549D01*
X178125614Y-114421023D01*
X178307416Y-114598718D01*
X178446550Y-114820818D01*
X178533395Y-115072566D01*
X178563053Y-115352779D01*
X178538396Y-115644722D01*
X178468429Y-115892877D01*
X178356246Y-116105291D01*
X178200902Y-116287833D01*
X178010941Y-116433197D01*
X177787111Y-116539734D01*
X177522819Y-116606919D01*
X177209521Y-116630750D01*
X175812024Y-116630750D01*
X175812024Y-116120770D01*
X176365967Y-116120770D01*
X177146598Y-116120770D01*
X177403181Y-116095104D01*
X177608287Y-116023659D01*
X177773080Y-115910019D01*
X177898549Y-115755863D01*
X177975507Y-115567214D01*
X178002791Y-115333820D01*
X177975756Y-115091281D01*
X177898851Y-114889688D01*
X177773080Y-114719977D01*
X177606360Y-114591621D01*
X177401241Y-114512222D01*
X177146598Y-114483946D01*
X176365967Y-114483946D01*
X176365967Y-116120770D01*
X175812024Y-116120770D01*
X175812024Y-113992927D01*
X176365967Y-113992927D01*
X177108954Y-113992927D01*
X177345006Y-113969171D01*
X177533532Y-113903050D01*
X177684878Y-113797838D01*
X177800290Y-113655350D01*
X177870923Y-113482080D01*
X177895904Y-113268899D01*
X177871217Y-113055496D01*
X177801516Y-112882327D01*
X177687901Y-112740236D01*
X177538394Y-112634968D01*
X177351067Y-112568720D01*
X177115273Y-112544872D01*
X176365967Y-112544872D01*
X176365967Y-113992927D01*
X175812024Y-113992927D01*
X175812024Y-112034893D01*
X177115273Y-112034893D01*
X177430576Y-112057142D01*
G37*
G36*
X180388097Y-114005566D02*
G01*
X180406782Y-114018206D01*
X180505216Y-113926323D01*
X180652429Y-113854441D01*
X180821402Y-113812406D01*
X181011283Y-113797838D01*
X181279147Y-113818851D01*
X181515487Y-113879301D01*
X181725693Y-113977265D01*
X181914729Y-114111979D01*
X182073517Y-114275825D01*
X182204348Y-114471582D01*
X182298827Y-114687459D01*
X182357186Y-114929135D01*
X182377455Y-115201654D01*
X182355418Y-115490500D01*
X182291794Y-115747951D01*
X182188411Y-115979262D01*
X182046051Y-116188191D01*
X181873787Y-116362410D01*
X181669090Y-116504903D01*
X181441832Y-116607939D01*
X181186699Y-116671561D01*
X180898076Y-116693673D01*
X180609061Y-116671994D01*
X180351591Y-116609442D01*
X180120468Y-116507926D01*
X179911453Y-116367337D01*
X179737154Y-116196202D01*
X179594552Y-115991902D01*
X179491318Y-115764719D01*
X179427793Y-115511498D01*
X179405783Y-115226933D01*
X179406936Y-115214294D01*
X179972365Y-115214294D01*
X180002543Y-115493806D01*
X180088125Y-115725349D01*
X180227355Y-115919362D01*
X180412383Y-116068469D01*
X180630523Y-116158549D01*
X180891756Y-116190013D01*
X181152807Y-116158556D01*
X181370861Y-116068483D01*
X181555883Y-115919362D01*
X181695113Y-115725349D01*
X181780695Y-115493806D01*
X181810873Y-115214294D01*
X181780695Y-114934781D01*
X181695113Y-114703238D01*
X181555883Y-114509226D01*
X181370841Y-114359940D01*
X181152787Y-114269783D01*
X180891756Y-114238299D01*
X180630542Y-114269790D01*
X180412403Y-114359955D01*
X180227355Y-114509226D01*
X180088125Y-114703238D01*
X180002543Y-114934781D01*
X179972365Y-115214294D01*
X179406936Y-115214294D01*
X179433323Y-114924968D01*
X179518989Y-114606770D01*
X179649596Y-114288851D01*
X179827560Y-113942643D01*
X180891756Y-112034893D01*
X181521262Y-112034893D01*
X180388097Y-114005566D01*
G37*
G36*
X184825160Y-113985425D02*
G01*
X184941913Y-114052827D01*
X185018382Y-114160168D01*
X185045778Y-114313862D01*
X185018227Y-114473849D01*
X184941913Y-114584788D01*
X184824932Y-114654295D01*
X184668239Y-114679035D01*
X184511308Y-114654285D01*
X184394290Y-114584788D01*
X184317977Y-114473849D01*
X184290426Y-114313862D01*
X184317822Y-114160168D01*
X184394290Y-114052827D01*
X184511079Y-113985435D01*
X184668239Y-113961328D01*
X184825160Y-113985425D01*
G37*
G36*
X184983071Y-111997195D02*
G01*
X185251230Y-112068715D01*
X185480991Y-112183030D01*
X185678580Y-112340441D01*
X185839448Y-112535533D01*
X185955507Y-112760523D01*
X186027721Y-113021217D01*
X186053096Y-113325503D01*
X186053096Y-115340140D01*
X186033104Y-115608505D01*
X185975698Y-115844991D01*
X185883012Y-116054825D01*
X185753902Y-116243132D01*
X185594444Y-116399612D01*
X185401609Y-116526885D01*
X185187961Y-116617510D01*
X184945332Y-116673943D01*
X184668239Y-116693673D01*
X184353241Y-116668460D01*
X184084987Y-116596980D01*
X183855193Y-116482747D01*
X183657623Y-116325476D01*
X183496747Y-116130252D01*
X183380687Y-115905167D01*
X183308478Y-115644421D01*
X183283107Y-115340140D01*
X183283107Y-113325503D01*
X183830730Y-113325503D01*
X183830730Y-115340140D01*
X183857778Y-115587068D01*
X183934736Y-115792896D01*
X184060441Y-115966623D01*
X184227386Y-116099631D01*
X184426785Y-116180545D01*
X184668239Y-116208973D01*
X184909502Y-116180546D01*
X185108716Y-116099635D01*
X185275488Y-115966623D01*
X185401354Y-115792876D01*
X185478398Y-115587049D01*
X185505473Y-115340140D01*
X185505473Y-113325503D01*
X185478405Y-113078777D01*
X185401367Y-112873036D01*
X185275488Y-112699295D01*
X185108696Y-112566119D01*
X184909481Y-112485123D01*
X184668239Y-112456670D01*
X184426805Y-112485124D01*
X184227407Y-112566123D01*
X184060441Y-112699295D01*
X183934723Y-112873016D01*
X183857771Y-113078758D01*
X183830730Y-113325503D01*
X183283107Y-113325503D01*
X183308482Y-113021217D01*
X183380697Y-112760523D01*
X183496756Y-112535533D01*
X183657623Y-112340441D01*
X183855211Y-112183041D01*
X184085010Y-112068726D01*
X184353258Y-111997199D01*
X184668239Y-111971970D01*
X184983071Y-111997195D01*
G37*
G36*
X191830752Y-116630750D02*
G01*
X190647304Y-112034893D01*
X191226526Y-112034893D01*
X192013476Y-115164010D01*
X192148665Y-115768236D01*
X192227525Y-116190013D01*
X192312155Y-115765214D01*
X192453938Y-115157690D01*
X193209564Y-112034893D01*
X193795106Y-112034893D01*
X192605063Y-116630750D01*
X191830752Y-116630750D01*
G37*
G36*
X194675479Y-116630750D02*
G01*
X194675479Y-116114451D01*
X195922125Y-116114451D01*
X195922125Y-112525913D01*
X194675479Y-113457669D01*
X194675479Y-112809204D01*
X195714397Y-112034893D01*
X196488708Y-112034893D01*
X196488708Y-116114451D01*
X197508391Y-116114451D01*
X197508391Y-116630750D01*
X194675479Y-116630750D01*
G37*
G36*
X199774171Y-116693673D02*
G01*
X199624453Y-116677237D01*
X199501489Y-116630746D01*
X199399380Y-116555187D01*
X199321554Y-116455146D01*
X199274371Y-116337281D01*
X199257872Y-116196333D01*
X199274546Y-116046761D01*
X199321936Y-115922707D01*
X199399380Y-115818520D01*
X199501959Y-115739245D01*
X199624918Y-115690786D01*
X199774171Y-115673714D01*
X199923232Y-115690785D01*
X200046007Y-115739242D01*
X200148412Y-115818520D01*
X200226017Y-115922727D01*
X200273494Y-116046781D01*
X200290195Y-116196333D01*
X200273668Y-116337262D01*
X200226401Y-116455126D01*
X200148412Y-116555187D01*
X200046477Y-116630749D01*
X199923697Y-116677237D01*
X199774171Y-116693673D01*
G37*
G36*
X202228445Y-116630750D02*
G01*
X202228445Y-116114451D01*
X203475091Y-116114451D01*
X203475091Y-112525913D01*
X202228445Y-113457669D01*
X202228445Y-112809204D01*
X203267363Y-112034893D01*
X204041673Y-112034893D01*
X204041673Y-116114451D01*
X205061357Y-116114451D01*
X205061357Y-116630750D01*
X202228445Y-116630750D01*
G37*
D11*
G36*
X172667572Y-117039107D02*
G01*
X172767775Y-117062838D01*
X172851798Y-117100157D01*
X172922283Y-117150537D01*
X172980489Y-117214786D01*
X173022397Y-117290086D01*
X173048523Y-117378635D01*
X173057746Y-117483538D01*
X173048274Y-117570166D01*
X173020174Y-117650287D01*
X172972523Y-117725815D01*
X172909942Y-117788972D01*
X172837537Y-117833136D01*
X172753291Y-117859617D01*
X172753291Y-117861070D01*
X172848197Y-117884895D01*
X172931521Y-117932694D01*
X173000832Y-118000404D01*
X173053801Y-118084974D01*
X173086845Y-118180812D01*
X173098125Y-118287390D01*
X173088748Y-118398392D01*
X173062139Y-118492765D01*
X173019470Y-118573565D01*
X172960378Y-118643020D01*
X172888070Y-118698348D01*
X172802934Y-118738885D01*
X172702479Y-118764439D01*
X172583469Y-118773501D01*
X172052204Y-118773501D01*
X172052204Y-118574198D01*
X172268115Y-118574198D01*
X172559698Y-118574198D01*
X172655840Y-118564604D01*
X172732563Y-118537920D01*
X172794086Y-118495516D01*
X172840909Y-118437959D01*
X172869639Y-118367477D01*
X172879827Y-118280228D01*
X172869718Y-118189465D01*
X172840972Y-118114098D01*
X172793982Y-118050719D01*
X172731671Y-118002743D01*
X172654967Y-117973059D01*
X172559698Y-117962486D01*
X172268115Y-117962486D01*
X172268115Y-118574198D01*
X172052204Y-118574198D01*
X172052204Y-117770346D01*
X172268115Y-117770346D01*
X172545477Y-117770346D01*
X172633794Y-117761479D01*
X172704261Y-117736809D01*
X172760765Y-117697580D01*
X172803789Y-117644432D01*
X172830129Y-117579759D01*
X172839448Y-117500147D01*
X172830240Y-117420449D01*
X172804252Y-117355815D01*
X172761907Y-117302817D01*
X172706097Y-117263567D01*
X172636084Y-117238849D01*
X172547864Y-117229947D01*
X172268115Y-117229947D01*
X172268115Y-117770346D01*
X172052204Y-117770346D01*
X172052204Y-117030645D01*
X172547864Y-117030645D01*
X172667572Y-117039107D01*
G37*
G36*
X174076585Y-117442297D02*
G01*
X174166417Y-117463343D01*
X174245981Y-117497240D01*
X174318050Y-117544625D01*
X174377958Y-117602595D01*
X174426806Y-117672045D01*
X174462065Y-117749474D01*
X174483942Y-117837354D01*
X174491580Y-117937781D01*
X174491580Y-118174141D01*
X173673403Y-118174141D01*
X173673403Y-118294552D01*
X173683303Y-118387010D01*
X173711030Y-118461382D01*
X173755615Y-118521674D01*
X173815153Y-118567274D01*
X173886949Y-118595249D01*
X173974536Y-118605132D01*
X174052052Y-118599513D01*
X174115980Y-118583853D01*
X174168752Y-118559354D01*
X174213826Y-118524244D01*
X174244306Y-118482828D01*
X174261967Y-118433856D01*
X174482445Y-118433856D01*
X174463814Y-118514921D01*
X174431118Y-118585220D01*
X174384154Y-118646622D01*
X174321446Y-118700215D01*
X174224472Y-118752785D01*
X174110170Y-118785651D01*
X173974536Y-118797271D01*
X173860064Y-118787827D01*
X173761208Y-118760868D01*
X173675180Y-118717428D01*
X173599910Y-118657137D01*
X173539248Y-118582982D01*
X173495071Y-118495720D01*
X173467320Y-118392768D01*
X173457492Y-118270678D01*
X173457492Y-117961552D01*
X173459406Y-117937781D01*
X173673403Y-117937781D01*
X173673403Y-118000997D01*
X174275565Y-118000997D01*
X174275565Y-117937781D01*
X174265806Y-117838577D01*
X174238962Y-117761326D01*
X174196778Y-117701110D01*
X174139303Y-117655972D01*
X174066717Y-117627788D01*
X173974536Y-117617652D01*
X173882282Y-117627788D01*
X173809626Y-117655973D01*
X173752086Y-117701110D01*
X173709962Y-117761318D01*
X173683150Y-117838569D01*
X173673403Y-117937781D01*
X173459406Y-117937781D01*
X173467320Y-117839462D01*
X173495071Y-117736510D01*
X173539248Y-117649247D01*
X173599910Y-117575092D01*
X173675180Y-117514801D01*
X173761208Y-117471362D01*
X173860064Y-117444402D01*
X173974536Y-117434958D01*
X174076585Y-117442297D01*
G37*
G36*
X174903159Y-118773501D02*
G01*
X174903159Y-117458729D01*
X175123845Y-117458729D01*
X175122911Y-117709414D01*
X175120523Y-117709102D01*
X175140207Y-117627045D01*
X175175875Y-117560735D01*
X175227752Y-117507101D01*
X175292354Y-117468325D01*
X175371877Y-117443775D01*
X175470132Y-117434958D01*
X175568164Y-117443246D01*
X175651934Y-117466815D01*
X175724051Y-117504693D01*
X175786421Y-117557238D01*
X175836379Y-117621548D01*
X175872866Y-117696941D01*
X175895807Y-117785567D01*
X175903926Y-117890239D01*
X175903926Y-118773501D01*
X175683240Y-118773501D01*
X175683240Y-117928231D01*
X175673982Y-117831957D01*
X175648680Y-117757934D01*
X175609229Y-117701110D01*
X175555392Y-117658170D01*
X175489579Y-117631785D01*
X175408266Y-117622427D01*
X175324018Y-117632197D01*
X175255867Y-117659753D01*
X175200140Y-117704639D01*
X175159343Y-117763853D01*
X175133318Y-117839948D01*
X175123845Y-117937781D01*
X175123845Y-118773501D01*
X174903159Y-118773501D01*
G37*
G36*
X176775562Y-118792496D02*
G01*
X176664589Y-118785324D01*
X176572785Y-118765360D01*
X176496925Y-118734307D01*
X176434360Y-118692949D01*
X176382312Y-118639050D01*
X176344881Y-118575052D01*
X176321504Y-118498919D01*
X176313222Y-118407698D01*
X176533908Y-118407698D01*
X176541365Y-118466112D01*
X176562403Y-118512639D01*
X176597020Y-118550116D01*
X176641810Y-118576713D01*
X176700079Y-118594003D01*
X176775562Y-118600357D01*
X176880195Y-118600357D01*
X176957159Y-118593858D01*
X177016540Y-118576176D01*
X177062162Y-118548974D01*
X177097497Y-118510616D01*
X177118935Y-118463223D01*
X177126520Y-118403961D01*
X177115967Y-118326484D01*
X177087645Y-118273062D01*
X177042255Y-118237088D01*
X176974864Y-118217011D01*
X176613317Y-118164695D01*
X176528141Y-118142860D01*
X176459492Y-118105616D01*
X176404258Y-118052899D01*
X176364133Y-117987419D01*
X176338868Y-117907479D01*
X176329831Y-117809376D01*
X176337777Y-117724942D01*
X176360418Y-117653115D01*
X176397076Y-117591406D01*
X176448581Y-117538138D01*
X176509999Y-117496966D01*
X176583346Y-117466295D01*
X176670923Y-117446723D01*
X176775562Y-117439733D01*
X176880195Y-117439733D01*
X177004629Y-117451155D01*
X177107366Y-117483262D01*
X177192747Y-117534505D01*
X177246662Y-117586161D01*
X177285833Y-117644503D01*
X177311500Y-117710683D01*
X177323643Y-117786540D01*
X177100569Y-117786540D01*
X177091312Y-117742461D01*
X177070233Y-117704612D01*
X177036108Y-117671526D01*
X176994235Y-117647651D01*
X176943032Y-117632523D01*
X176880195Y-117627098D01*
X176775562Y-117627098D01*
X176704914Y-117633239D01*
X176649644Y-117650071D01*
X176606466Y-117676197D01*
X176572877Y-117712596D01*
X176552768Y-117756221D01*
X176545741Y-117809376D01*
X176554297Y-117872420D01*
X176577310Y-117916199D01*
X176614223Y-117945966D01*
X176668956Y-117963005D01*
X177006628Y-118010547D01*
X177113815Y-118036409D01*
X177195940Y-118077365D01*
X177258088Y-118132330D01*
X177303284Y-118202546D01*
X177332092Y-118291391D01*
X177342535Y-118403961D01*
X177334308Y-118494590D01*
X177311006Y-118570850D01*
X177273570Y-118635531D01*
X177221396Y-118690562D01*
X177158727Y-118732988D01*
X177082831Y-118764770D01*
X176991067Y-118785172D01*
X176880195Y-118792496D01*
X176775562Y-118792496D01*
G37*
G36*
X178373066Y-117449202D02*
G01*
X178473576Y-117475997D01*
X178559283Y-117518735D01*
X178632601Y-117577480D01*
X178691383Y-117650240D01*
X178734537Y-117737240D01*
X178761856Y-117841346D01*
X178771594Y-117966327D01*
X178771594Y-118266007D01*
X178761843Y-118389578D01*
X178734405Y-118493110D01*
X178690912Y-118580212D01*
X178631459Y-118653608D01*
X178557453Y-118713031D01*
X178471620Y-118756108D01*
X178371672Y-118783017D01*
X178254550Y-118792496D01*
X178137372Y-118783015D01*
X178037390Y-118756104D01*
X177951542Y-118713027D01*
X177877536Y-118653608D01*
X177818132Y-118580218D01*
X177774671Y-118493120D01*
X177747251Y-118389585D01*
X177737506Y-118266007D01*
X177737506Y-117966327D01*
X177739357Y-117942556D01*
X177958192Y-117942556D01*
X177958192Y-118289778D01*
X177968146Y-118387103D01*
X177995359Y-118461396D01*
X178038016Y-118518041D01*
X178095648Y-118560088D01*
X178166575Y-118586246D01*
X178254550Y-118595582D01*
X178344050Y-118586175D01*
X178415213Y-118559982D01*
X178472121Y-118518145D01*
X178514174Y-118461583D01*
X178541061Y-118387262D01*
X178550908Y-118289778D01*
X178550908Y-117942556D01*
X178541056Y-117845002D01*
X178514166Y-117770690D01*
X178472121Y-117714189D01*
X178415205Y-117672291D01*
X178344042Y-117646065D01*
X178254550Y-117636648D01*
X178166575Y-117645983D01*
X178095648Y-117672142D01*
X178038016Y-117714189D01*
X177995363Y-117770835D01*
X177968149Y-117845160D01*
X177958192Y-117942556D01*
X177739357Y-117942556D01*
X177747237Y-117841338D01*
X177774539Y-117737231D01*
X177817661Y-117650233D01*
X177876395Y-117577480D01*
X177949712Y-117518739D01*
X178035434Y-117476001D01*
X178135977Y-117449203D01*
X178254550Y-117439733D01*
X178373066Y-117449202D01*
G37*
G36*
X179183173Y-118773501D02*
G01*
X179183173Y-117458729D01*
X179403859Y-117458729D01*
X179402925Y-117709414D01*
X179400537Y-117709102D01*
X179420221Y-117627045D01*
X179455889Y-117560735D01*
X179507766Y-117507101D01*
X179572368Y-117468325D01*
X179651890Y-117443775D01*
X179750146Y-117434958D01*
X179848178Y-117443246D01*
X179931948Y-117466815D01*
X180004065Y-117504693D01*
X180066435Y-117557238D01*
X180116393Y-117621548D01*
X180152880Y-117696941D01*
X180175821Y-117785567D01*
X180183940Y-117890239D01*
X180183940Y-118773501D01*
X179963254Y-118773501D01*
X179963254Y-117928231D01*
X179953996Y-117831957D01*
X179928694Y-117757934D01*
X179889243Y-117701110D01*
X179835406Y-117658170D01*
X179769593Y-117631785D01*
X179688280Y-117622427D01*
X179604032Y-117632197D01*
X179535881Y-117659753D01*
X179480154Y-117704639D01*
X179439357Y-117763853D01*
X179413332Y-117839948D01*
X179403859Y-117937781D01*
X179403859Y-118773501D01*
X179183173Y-118773501D01*
G37*
G36*
X182019907Y-118773501D02*
G01*
X182019907Y-118555202D01*
X182799885Y-117232334D01*
X182031741Y-117232334D01*
X182031741Y-117030645D01*
X183025449Y-117030645D01*
X183025449Y-117248943D01*
X182245472Y-118571811D01*
X183049220Y-118571811D01*
X183049220Y-118773501D01*
X182019907Y-118773501D01*
G37*
G36*
X183463187Y-118773501D02*
G01*
X183463187Y-117030645D01*
X183683873Y-117030645D01*
X183682939Y-117709414D01*
X183680551Y-117709102D01*
X183700235Y-117627045D01*
X183735903Y-117560735D01*
X183787780Y-117507101D01*
X183852382Y-117468325D01*
X183931904Y-117443775D01*
X184030160Y-117434958D01*
X184128192Y-117443246D01*
X184211962Y-117466815D01*
X184284079Y-117504693D01*
X184346449Y-117557238D01*
X184396407Y-117621548D01*
X184432894Y-117696941D01*
X184455834Y-117785567D01*
X184463954Y-117890239D01*
X184463954Y-118773501D01*
X184243268Y-118773501D01*
X184243268Y-117925843D01*
X184234062Y-117831200D01*
X184208806Y-117757890D01*
X184169257Y-117701110D01*
X184115420Y-117658170D01*
X184049607Y-117631785D01*
X183968294Y-117622427D01*
X183884045Y-117632197D01*
X183815895Y-117659753D01*
X183760168Y-117704639D01*
X183719371Y-117763853D01*
X183693346Y-117839948D01*
X183683873Y-117937781D01*
X183683873Y-118773501D01*
X183463187Y-118773501D01*
G37*
G36*
X185506423Y-117449202D02*
G01*
X185606933Y-117475997D01*
X185692640Y-117518735D01*
X185765958Y-117577480D01*
X185824740Y-117650240D01*
X185867893Y-117737240D01*
X185895213Y-117841346D01*
X185904950Y-117966327D01*
X185904950Y-118266007D01*
X185895199Y-118389578D01*
X185867761Y-118493110D01*
X185824268Y-118580212D01*
X185764816Y-118653608D01*
X185690810Y-118713031D01*
X185604977Y-118756108D01*
X185505028Y-118783017D01*
X185387906Y-118792496D01*
X185270728Y-118783015D01*
X185170746Y-118756104D01*
X185084898Y-118713027D01*
X185010893Y-118653608D01*
X184951489Y-118580218D01*
X184908027Y-118493120D01*
X184880607Y-118389585D01*
X184870863Y-118266007D01*
X184870863Y-117966327D01*
X184872714Y-117942556D01*
X185091548Y-117942556D01*
X185091548Y-118289778D01*
X185101503Y-118387103D01*
X185128715Y-118461396D01*
X185171373Y-118518041D01*
X185229004Y-118560088D01*
X185299931Y-118586246D01*
X185387906Y-118595582D01*
X185477407Y-118586175D01*
X185548570Y-118559982D01*
X185605478Y-118518145D01*
X185647531Y-118461583D01*
X185674417Y-118387262D01*
X185684265Y-118289778D01*
X185684265Y-117942556D01*
X185674412Y-117845002D01*
X185647522Y-117770690D01*
X185605478Y-117714189D01*
X185548562Y-117672291D01*
X185477399Y-117646065D01*
X185387906Y-117636648D01*
X185299931Y-117645983D01*
X185229004Y-117672142D01*
X185171373Y-117714189D01*
X185128720Y-117770835D01*
X185101505Y-117845160D01*
X185091548Y-117942556D01*
X184872714Y-117942556D01*
X184880594Y-117841338D01*
X184907895Y-117737231D01*
X184951017Y-117650233D01*
X185009751Y-117577480D01*
X185083068Y-117518739D01*
X185168790Y-117476001D01*
X185269333Y-117449203D01*
X185387906Y-117439733D01*
X185506423Y-117449202D01*
G37*
G36*
X186812190Y-118797271D02*
G01*
X186699905Y-118788085D01*
X186603600Y-118761946D01*
X186520425Y-118719976D01*
X186448256Y-118661912D01*
X186389902Y-118590306D01*
X186347573Y-118506878D01*
X186321097Y-118409323D01*
X186311755Y-118294552D01*
X186311755Y-117458729D01*
X186532441Y-117458729D01*
X186532441Y-118294552D01*
X186541556Y-118386002D01*
X186567007Y-118459677D01*
X186607594Y-118519390D01*
X186662659Y-118565029D01*
X186729664Y-118592896D01*
X186812190Y-118602744D01*
X186896348Y-118592858D01*
X186964461Y-118564947D01*
X187020212Y-118519390D01*
X187061519Y-118459584D01*
X187087365Y-118385908D01*
X187096611Y-118294552D01*
X187096611Y-117458729D01*
X187317297Y-117458729D01*
X187317297Y-118294552D01*
X187307811Y-118409221D01*
X187280905Y-118506752D01*
X187237823Y-118590253D01*
X187178304Y-118662016D01*
X187105043Y-118720111D01*
X187021087Y-118762052D01*
X186924385Y-118788127D01*
X186812190Y-118797271D01*
G37*
G36*
X189284056Y-118083832D02*
G01*
X189284056Y-117886917D01*
X190051785Y-117886917D01*
X190051785Y-118083832D01*
X189284056Y-118083832D01*
G37*
G36*
X192587631Y-117038350D02*
G01*
X192684500Y-117060288D01*
X192768937Y-117095314D01*
X192845513Y-117144611D01*
X192908936Y-117204967D01*
X192960454Y-117277281D01*
X192997632Y-117358050D01*
X193020700Y-117449830D01*
X193028757Y-117554851D01*
X193028757Y-118246907D01*
X193020722Y-118351937D01*
X192997672Y-118444159D01*
X192960454Y-118525722D01*
X192908868Y-118598760D01*
X192845436Y-118659513D01*
X192768937Y-118708935D01*
X192684506Y-118743903D01*
X192587636Y-118765807D01*
X192476005Y-118773501D01*
X192023215Y-118773501D01*
X192023215Y-118576586D01*
X192243901Y-118576586D01*
X192476005Y-118576586D01*
X192576258Y-118566025D01*
X192656014Y-118536608D01*
X192719838Y-118489599D01*
X192767522Y-118426437D01*
X192797351Y-118347106D01*
X192808071Y-118246907D01*
X192808071Y-117554851D01*
X192797410Y-117456335D01*
X192767635Y-117377760D01*
X192719838Y-117314650D01*
X192656006Y-117267580D01*
X192576250Y-117238131D01*
X192476005Y-117227559D01*
X192243901Y-117227559D01*
X192243901Y-118576586D01*
X192023215Y-118576586D01*
X192023215Y-117030645D01*
X192476005Y-117030645D01*
X192587631Y-117038350D01*
G37*
G36*
X194049983Y-117442297D02*
G01*
X194139815Y-117463343D01*
X194219380Y-117497240D01*
X194291449Y-117544625D01*
X194351357Y-117602595D01*
X194400205Y-117672045D01*
X194435463Y-117749474D01*
X194457340Y-117837354D01*
X194464978Y-117937781D01*
X194464978Y-118174141D01*
X193646801Y-118174141D01*
X193646801Y-118294552D01*
X193656701Y-118387010D01*
X193684429Y-118461382D01*
X193729013Y-118521674D01*
X193788551Y-118567274D01*
X193860347Y-118595249D01*
X193947934Y-118605132D01*
X194025451Y-118599513D01*
X194089379Y-118583853D01*
X194142150Y-118559354D01*
X194187224Y-118524244D01*
X194217704Y-118482828D01*
X194235365Y-118433856D01*
X194455843Y-118433856D01*
X194437212Y-118514921D01*
X194404516Y-118585220D01*
X194357553Y-118646622D01*
X194294845Y-118700215D01*
X194197871Y-118752785D01*
X194083569Y-118785651D01*
X193947934Y-118797271D01*
X193833462Y-118787827D01*
X193734606Y-118760868D01*
X193648579Y-118717428D01*
X193573308Y-118657137D01*
X193512646Y-118582982D01*
X193468469Y-118495720D01*
X193440719Y-118392768D01*
X193430890Y-118270678D01*
X193430890Y-117961552D01*
X193432804Y-117937781D01*
X193646801Y-117937781D01*
X193646801Y-118000997D01*
X194248964Y-118000997D01*
X194248964Y-117937781D01*
X194239205Y-117838577D01*
X194212360Y-117761326D01*
X194170177Y-117701110D01*
X194112701Y-117655972D01*
X194040116Y-117627788D01*
X193947934Y-117617652D01*
X193855680Y-117627788D01*
X193783025Y-117655973D01*
X193725484Y-117701110D01*
X193683360Y-117761318D01*
X193656549Y-117838569D01*
X193646801Y-117937781D01*
X193432804Y-117937781D01*
X193440719Y-117839462D01*
X193468469Y-117736510D01*
X193512646Y-117649247D01*
X193573308Y-117575092D01*
X193648579Y-117514801D01*
X193734606Y-117471362D01*
X193833462Y-117444402D01*
X193947934Y-117434958D01*
X194049983Y-117442297D01*
G37*
G36*
X195393602Y-118797271D02*
G01*
X195274959Y-118788087D01*
X195173445Y-118762020D01*
X195086104Y-118720374D01*
X195010672Y-118663158D01*
X194949100Y-118591710D01*
X194904604Y-118508197D01*
X194876816Y-118410237D01*
X194867008Y-118294552D01*
X194867008Y-117937781D01*
X194876817Y-117822040D01*
X194904608Y-117724047D01*
X194949105Y-117640519D01*
X195010672Y-117569072D01*
X195086104Y-117511855D01*
X195173445Y-117470210D01*
X195274959Y-117444143D01*
X195393602Y-117434958D01*
X195506560Y-117443325D01*
X195603789Y-117467102D01*
X195687906Y-117505082D01*
X195760961Y-117557134D01*
X195821812Y-117622744D01*
X195866496Y-117699209D01*
X195895635Y-117788530D01*
X195908362Y-117893561D01*
X195687780Y-117893561D01*
X195674188Y-117811862D01*
X195645663Y-117748269D01*
X195602973Y-117698826D01*
X195547763Y-117662799D01*
X195479174Y-117640053D01*
X195393602Y-117631873D01*
X195304036Y-117641312D01*
X195231090Y-117667862D01*
X195171151Y-117710659D01*
X195126129Y-117768189D01*
X195097890Y-117841526D01*
X195087693Y-117935393D01*
X195087693Y-118294552D01*
X195097858Y-118388378D01*
X195126077Y-118462144D01*
X195171151Y-118520428D01*
X195231175Y-118563892D01*
X195304121Y-118590800D01*
X195393602Y-118600357D01*
X195479088Y-118592056D01*
X195547677Y-118568945D01*
X195602973Y-118532262D01*
X195645837Y-118482128D01*
X195674296Y-118418828D01*
X195687780Y-118338773D01*
X195908362Y-118338773D01*
X195895638Y-118443747D01*
X195866501Y-118533035D01*
X195821817Y-118609485D01*
X195760961Y-118675095D01*
X195687906Y-118727148D01*
X195603789Y-118765127D01*
X195506560Y-118788905D01*
X195393602Y-118797271D01*
G37*
G36*
X197715576Y-118773501D02*
G01*
X197715576Y-118571396D01*
X198294486Y-117952106D01*
X198407028Y-117819376D01*
X198472197Y-117715227D01*
X198511800Y-117610331D01*
X198524306Y-117512084D01*
X198514566Y-117421088D01*
X198487215Y-117347413D01*
X198443132Y-117287246D01*
X198384306Y-117241800D01*
X198312263Y-117213755D01*
X198223173Y-117203788D01*
X198130992Y-117214056D01*
X198056580Y-117242919D01*
X197995948Y-117289634D01*
X197950804Y-117351599D01*
X197922597Y-117428584D01*
X197912490Y-117524852D01*
X197691701Y-117524852D01*
X197704810Y-117406244D01*
X197734894Y-117305453D01*
X197780766Y-117219391D01*
X197842631Y-117145762D01*
X197918332Y-117086226D01*
X198005415Y-117043144D01*
X198106062Y-117016303D01*
X198223173Y-117006874D01*
X198342995Y-117016253D01*
X198444973Y-117042818D01*
X198532230Y-117085193D01*
X198607141Y-117143375D01*
X198668252Y-117215889D01*
X198712410Y-117300210D01*
X198739956Y-117398649D01*
X198749663Y-117514368D01*
X198742608Y-117595954D01*
X198720548Y-117683169D01*
X198681568Y-117777405D01*
X198630487Y-117865967D01*
X198554795Y-117968564D01*
X198449153Y-118087465D01*
X197985983Y-118571811D01*
X198771150Y-118571811D01*
X198771150Y-118773501D01*
X197715576Y-118773501D01*
G37*
G36*
X199715075Y-117767741D02*
G01*
X199760291Y-117793910D01*
X199789955Y-117835519D01*
X199800567Y-117894910D01*
X199789896Y-117956678D01*
X199760291Y-117999648D01*
X199714990Y-118026612D01*
X199654620Y-118036186D01*
X199594159Y-118026608D01*
X199548844Y-117999648D01*
X199519239Y-117956678D01*
X199508568Y-117894910D01*
X199519181Y-117835519D01*
X199548844Y-117793910D01*
X199594074Y-117767745D01*
X199654620Y-117758409D01*
X199715075Y-117767741D01*
G37*
G36*
X199774212Y-117016463D02*
G01*
X199876108Y-117043657D01*
X199963447Y-117087132D01*
X200038588Y-117147008D01*
X200099822Y-117221262D01*
X200143987Y-117306836D01*
X200171459Y-117405930D01*
X200181109Y-117521530D01*
X200181109Y-118282615D01*
X200173512Y-118384540D01*
X200151689Y-118474433D01*
X200116440Y-118554268D01*
X200067280Y-118625919D01*
X200006593Y-118685446D01*
X199933227Y-118733848D01*
X199852018Y-118768314D01*
X199759840Y-118789772D01*
X199654620Y-118797271D01*
X199534973Y-118787682D01*
X199433023Y-118760487D01*
X199345633Y-118717012D01*
X199270444Y-118657137D01*
X199209258Y-118582890D01*
X199165124Y-118497318D01*
X199137670Y-118398222D01*
X199128026Y-118282615D01*
X199128026Y-117521530D01*
X199341549Y-117521530D01*
X199341549Y-118282615D01*
X199351661Y-118375039D01*
X199380425Y-118452043D01*
X199427394Y-118517003D01*
X199489782Y-118566674D01*
X199564326Y-118596899D01*
X199654620Y-118607519D01*
X199744841Y-118596899D01*
X199819315Y-118566676D01*
X199881637Y-118517003D01*
X199928667Y-118452036D01*
X199957464Y-118375032D01*
X199967586Y-118282615D01*
X199967586Y-117521530D01*
X199957466Y-117429183D01*
X199928672Y-117352211D01*
X199881637Y-117287246D01*
X199819307Y-117237512D01*
X199744833Y-117207256D01*
X199654620Y-117196626D01*
X199564334Y-117207257D01*
X199489790Y-117237513D01*
X199427394Y-117287246D01*
X199380420Y-117352204D01*
X199351658Y-117429176D01*
X199341549Y-117521530D01*
X199128026Y-117521530D01*
X199137670Y-117405923D01*
X199165124Y-117306827D01*
X199209258Y-117221255D01*
X199270444Y-117147008D01*
X199345633Y-117087133D01*
X199433023Y-117043658D01*
X199534973Y-117016463D01*
X199654620Y-117006874D01*
X199774212Y-117016463D01*
G37*
G36*
X200568918Y-118773501D02*
G01*
X200568918Y-118571396D01*
X201147829Y-117952106D01*
X201260371Y-117819376D01*
X201325540Y-117715227D01*
X201365143Y-117610331D01*
X201377649Y-117512084D01*
X201367909Y-117421088D01*
X201340557Y-117347413D01*
X201296475Y-117287246D01*
X201237648Y-117241800D01*
X201165605Y-117213755D01*
X201076516Y-117203788D01*
X200984334Y-117214056D01*
X200909923Y-117242919D01*
X200849291Y-117289634D01*
X200804147Y-117351599D01*
X200775939Y-117428584D01*
X200765833Y-117524852D01*
X200545043Y-117524852D01*
X200558153Y-117406244D01*
X200588236Y-117305453D01*
X200634108Y-117219391D01*
X200695973Y-117145762D01*
X200771674Y-117086226D01*
X200858758Y-117043144D01*
X200959405Y-117016303D01*
X201076516Y-117006874D01*
X201196337Y-117016253D01*
X201298316Y-117042818D01*
X201385572Y-117085193D01*
X201460484Y-117143375D01*
X201521595Y-117215889D01*
X201565753Y-117300210D01*
X201593299Y-117398649D01*
X201603006Y-117514368D01*
X201595950Y-117595954D01*
X201573891Y-117683169D01*
X201534911Y-117777405D01*
X201483830Y-117865967D01*
X201408138Y-117968564D01*
X201302495Y-118087465D01*
X200839326Y-118571811D01*
X201624493Y-118571811D01*
X201624493Y-118773501D01*
X200568918Y-118773501D01*
G37*
G36*
X202493637Y-118797271D02*
G01*
X202373714Y-118787950D01*
X202271905Y-118761580D01*
X202185042Y-118719583D01*
X202110707Y-118662016D01*
X202050262Y-118590132D01*
X202006479Y-118506108D01*
X201979099Y-118407556D01*
X201969431Y-118291231D01*
X202190117Y-118291231D01*
X202200065Y-118384294D01*
X202227830Y-118458531D01*
X202272329Y-118518145D01*
X202331875Y-118562791D01*
X202405133Y-118590485D01*
X202496025Y-118600357D01*
X202586914Y-118590482D01*
X202660134Y-118562787D01*
X202719617Y-118518145D01*
X202764328Y-118458593D01*
X202792053Y-118385366D01*
X202801933Y-118294552D01*
X202801933Y-118187531D01*
X202792293Y-118096467D01*
X202765314Y-118023248D01*
X202722004Y-117963939D01*
X202664013Y-117919093D01*
X202593117Y-117891443D01*
X202505575Y-117881623D01*
X202028910Y-117881623D01*
X202028910Y-117030645D01*
X202960752Y-117030645D01*
X202960752Y-117232334D01*
X202235375Y-117232334D01*
X202240150Y-117679934D01*
X202517408Y-117679934D01*
X202637702Y-117689268D01*
X202737734Y-117715435D01*
X202821166Y-117756723D01*
X202890788Y-117812906D01*
X202946476Y-117882997D01*
X202987422Y-117966819D01*
X203013368Y-118067130D01*
X203022618Y-118187531D01*
X203022618Y-118294552D01*
X203012932Y-118408996D01*
X202985424Y-118506447D01*
X202941278Y-118590030D01*
X202880097Y-118662016D01*
X202805234Y-118719523D01*
X202717634Y-118761529D01*
X202614836Y-118787932D01*
X202493637Y-118797271D01*
G37*
D12*
%TO.C,SW8*%
X166331250Y-33981250D02*
X166331250Y-32981250D01*
X166331250Y-47981250D02*
X166331250Y-46981250D01*
X166331250Y-47981250D02*
X167331250Y-47981250D01*
X167331250Y-32981250D02*
X166331250Y-32981250D01*
X180331250Y-47981250D02*
X181331250Y-47981250D01*
X181331250Y-32981250D02*
X180331250Y-32981250D01*
X181331250Y-32981250D02*
X181331250Y-33981250D01*
X181331250Y-46981250D02*
X181331250Y-47981250D01*
%TO.C,SW53*%
X261581250Y-91131250D02*
X261581250Y-90131250D01*
X261581250Y-105131250D02*
X261581250Y-104131250D01*
X261581250Y-105131250D02*
X262581250Y-105131250D01*
X262581250Y-90131250D02*
X261581250Y-90131250D01*
X275581250Y-105131250D02*
X276581250Y-105131250D01*
X276581250Y-90131250D02*
X275581250Y-90131250D01*
X276581250Y-90131250D02*
X276581250Y-91131250D01*
X276581250Y-104131250D02*
X276581250Y-105131250D01*
%TO.C,SW1*%
X32981250Y-33981250D02*
X32981250Y-32981250D01*
X32981250Y-47981250D02*
X32981250Y-46981250D01*
X32981250Y-47981250D02*
X33981250Y-47981250D01*
X33981250Y-32981250D02*
X32981250Y-32981250D01*
X46981250Y-47981250D02*
X47981250Y-47981250D01*
X47981250Y-32981250D02*
X46981250Y-32981250D01*
X47981250Y-32981250D02*
X47981250Y-33981250D01*
X47981250Y-46981250D02*
X47981250Y-47981250D01*
%TO.C,SW6*%
X128231250Y-33981250D02*
X128231250Y-32981250D01*
X128231250Y-47981250D02*
X128231250Y-46981250D01*
X128231250Y-47981250D02*
X129231250Y-47981250D01*
X129231250Y-32981250D02*
X128231250Y-32981250D01*
X142231250Y-47981250D02*
X143231250Y-47981250D01*
X143231250Y-32981250D02*
X142231250Y-32981250D01*
X143231250Y-32981250D02*
X143231250Y-33981250D01*
X143231250Y-46981250D02*
X143231250Y-47981250D01*
%TO.C,SW52*%
X242531250Y-91131250D02*
X242531250Y-90131250D01*
X242531250Y-105131250D02*
X242531250Y-104131250D01*
X242531250Y-105131250D02*
X243531250Y-105131250D01*
X243531250Y-90131250D02*
X242531250Y-90131250D01*
X256531250Y-105131250D02*
X257531250Y-105131250D01*
X257531250Y-90131250D02*
X256531250Y-90131250D01*
X257531250Y-90131250D02*
X257531250Y-91131250D01*
X257531250Y-104131250D02*
X257531250Y-105131250D01*
%TO.C,SW51*%
X223481250Y-91131250D02*
X223481250Y-90131250D01*
X223481250Y-105131250D02*
X223481250Y-104131250D01*
X223481250Y-105131250D02*
X224481250Y-105131250D01*
X224481250Y-90131250D02*
X223481250Y-90131250D01*
X237481250Y-105131250D02*
X238481250Y-105131250D01*
X238481250Y-90131250D02*
X237481250Y-90131250D01*
X238481250Y-90131250D02*
X238481250Y-91131250D01*
X238481250Y-104131250D02*
X238481250Y-105131250D01*
%TO.C,SW3*%
X71081250Y-33981250D02*
X71081250Y-32981250D01*
X71081250Y-47981250D02*
X71081250Y-46981250D01*
X71081250Y-47981250D02*
X72081250Y-47981250D01*
X72081250Y-32981250D02*
X71081250Y-32981250D01*
X85081250Y-47981250D02*
X86081250Y-47981250D01*
X86081250Y-32981250D02*
X85081250Y-32981250D01*
X86081250Y-32981250D02*
X86081250Y-33981250D01*
X86081250Y-46981250D02*
X86081250Y-47981250D01*
%TO.C,SW32*%
X104418750Y-72081250D02*
X104418750Y-71081250D01*
X104418750Y-86081250D02*
X104418750Y-85081250D01*
X104418750Y-86081250D02*
X105418750Y-86081250D01*
X105418750Y-71081250D02*
X104418750Y-71081250D01*
X118418750Y-86081250D02*
X119418750Y-86081250D01*
X119418750Y-71081250D02*
X118418750Y-71081250D01*
X119418750Y-71081250D02*
X119418750Y-72081250D01*
X119418750Y-85081250D02*
X119418750Y-86081250D01*
%TO.C,SW54*%
X280631250Y-91131250D02*
X280631250Y-90131250D01*
X280631250Y-105131250D02*
X280631250Y-104131250D01*
X280631250Y-105131250D02*
X281631250Y-105131250D01*
X281631250Y-90131250D02*
X280631250Y-90131250D01*
X294631250Y-105131250D02*
X295631250Y-105131250D01*
X295631250Y-90131250D02*
X294631250Y-90131250D01*
X295631250Y-90131250D02*
X295631250Y-91131250D01*
X295631250Y-104131250D02*
X295631250Y-105131250D01*
%TO.C,SW63*%
X280631250Y-110181250D02*
X280631250Y-109181250D01*
X280631250Y-124181250D02*
X280631250Y-123181250D01*
X280631250Y-124181250D02*
X281631250Y-124181250D01*
X281631250Y-109181250D02*
X280631250Y-109181250D01*
X294631250Y-124181250D02*
X295631250Y-124181250D01*
X295631250Y-109181250D02*
X294631250Y-109181250D01*
X295631250Y-109181250D02*
X295631250Y-110181250D01*
X295631250Y-123181250D02*
X295631250Y-124181250D01*
%TO.C,SW40*%
X256818750Y-72081250D02*
X256818750Y-71081250D01*
X256818750Y-86081250D02*
X256818750Y-85081250D01*
X256818750Y-86081250D02*
X257818750Y-86081250D01*
X257818750Y-71081250D02*
X256818750Y-71081250D01*
X270818750Y-86081250D02*
X271818750Y-86081250D01*
X271818750Y-71081250D02*
X270818750Y-71081250D01*
X271818750Y-71081250D02*
X271818750Y-72081250D01*
X271818750Y-85081250D02*
X271818750Y-86081250D01*
%TO.C,SW49*%
X185381250Y-91131250D02*
X185381250Y-90131250D01*
X185381250Y-105131250D02*
X185381250Y-104131250D01*
X185381250Y-105131250D02*
X186381250Y-105131250D01*
X186381250Y-90131250D02*
X185381250Y-90131250D01*
X199381250Y-105131250D02*
X200381250Y-105131250D01*
X200381250Y-90131250D02*
X199381250Y-90131250D01*
X200381250Y-90131250D02*
X200381250Y-91131250D01*
X200381250Y-104131250D02*
X200381250Y-105131250D01*
%TO.C,SW55*%
X299681250Y-91131250D02*
X299681250Y-90131250D01*
X299681250Y-105131250D02*
X299681250Y-104131250D01*
X299681250Y-105131250D02*
X300681250Y-105131250D01*
X300681250Y-90131250D02*
X299681250Y-90131250D01*
X313681250Y-105131250D02*
X314681250Y-105131250D01*
X314681250Y-90131250D02*
X313681250Y-90131250D01*
X314681250Y-90131250D02*
X314681250Y-91131250D01*
X314681250Y-104131250D02*
X314681250Y-105131250D01*
%TO.C,SW16*%
X61556250Y-53031250D02*
X61556250Y-52031250D01*
X61556250Y-67031250D02*
X61556250Y-66031250D01*
X61556250Y-67031250D02*
X62556250Y-67031250D01*
X62556250Y-52031250D02*
X61556250Y-52031250D01*
X75556250Y-67031250D02*
X76556250Y-67031250D01*
X76556250Y-52031250D02*
X75556250Y-52031250D01*
X76556250Y-52031250D02*
X76556250Y-53031250D01*
X76556250Y-66031250D02*
X76556250Y-67031250D01*
%TO.C,SW14*%
X290156250Y-33981250D02*
X290156250Y-32981250D01*
X290156250Y-47981250D02*
X290156250Y-46981250D01*
X290156250Y-47981250D02*
X291156250Y-47981250D01*
X291156250Y-32981250D02*
X290156250Y-32981250D01*
X304156250Y-47981250D02*
X305156250Y-47981250D01*
X305156250Y-32981250D02*
X304156250Y-32981250D01*
X305156250Y-32981250D02*
X305156250Y-33981250D01*
X305156250Y-46981250D02*
X305156250Y-47981250D01*
%TO.C,SW64*%
X299681250Y-110181250D02*
X299681250Y-109181250D01*
X299681250Y-124181250D02*
X299681250Y-123181250D01*
X299681250Y-124181250D02*
X300681250Y-124181250D01*
X300681250Y-109181250D02*
X299681250Y-109181250D01*
X313681250Y-124181250D02*
X314681250Y-124181250D01*
X314681250Y-109181250D02*
X313681250Y-109181250D01*
X314681250Y-109181250D02*
X314681250Y-110181250D01*
X314681250Y-123181250D02*
X314681250Y-124181250D01*
%TO.C,SW11*%
X223481250Y-33981250D02*
X223481250Y-32981250D01*
X223481250Y-47981250D02*
X223481250Y-46981250D01*
X223481250Y-47981250D02*
X224481250Y-47981250D01*
X224481250Y-32981250D02*
X223481250Y-32981250D01*
X237481250Y-47981250D02*
X238481250Y-47981250D01*
X238481250Y-32981250D02*
X237481250Y-32981250D01*
X238481250Y-32981250D02*
X238481250Y-33981250D01*
X238481250Y-46981250D02*
X238481250Y-47981250D01*
%TO.C,SW15*%
X37743750Y-53031250D02*
X37743750Y-52031250D01*
X37743750Y-67031250D02*
X37743750Y-66031250D01*
X37743750Y-67031250D02*
X38743750Y-67031250D01*
X38743750Y-52031250D02*
X37743750Y-52031250D01*
X51743750Y-67031250D02*
X52743750Y-67031250D01*
X52743750Y-52031250D02*
X51743750Y-52031250D01*
X52743750Y-52031250D02*
X52743750Y-53031250D01*
X52743750Y-66031250D02*
X52743750Y-67031250D01*
%TO.C,SW10*%
X204431250Y-33981250D02*
X204431250Y-32981250D01*
X204431250Y-47981250D02*
X204431250Y-46981250D01*
X204431250Y-47981250D02*
X205431250Y-47981250D01*
X205431250Y-32981250D02*
X204431250Y-32981250D01*
X218431250Y-47981250D02*
X219431250Y-47981250D01*
X219431250Y-32981250D02*
X218431250Y-32981250D01*
X219431250Y-32981250D02*
X219431250Y-33981250D01*
X219431250Y-46981250D02*
X219431250Y-47981250D01*
%TO.C,SW59*%
X154425000Y-110181250D02*
X154425000Y-109181250D01*
X154425000Y-124181250D02*
X154425000Y-123181250D01*
X154425000Y-124181250D02*
X155425000Y-124181250D01*
X155425000Y-109181250D02*
X154425000Y-109181250D01*
X168425000Y-124181250D02*
X169425000Y-124181250D01*
X169425000Y-109181250D02*
X168425000Y-109181250D01*
X169425000Y-109181250D02*
X169425000Y-110181250D01*
X169425000Y-123181250D02*
X169425000Y-124181250D01*
%TO.C,SW27*%
X271106250Y-53031250D02*
X271106250Y-52031250D01*
X271106250Y-67031250D02*
X271106250Y-66031250D01*
X271106250Y-67031250D02*
X272106250Y-67031250D01*
X272106250Y-52031250D02*
X271106250Y-52031250D01*
X285106250Y-67031250D02*
X286106250Y-67031250D01*
X286106250Y-52031250D02*
X285106250Y-52031250D01*
X286106250Y-52031250D02*
X286106250Y-53031250D01*
X286106250Y-66031250D02*
X286106250Y-67031250D01*
%TO.C,SW46*%
X128231250Y-91131250D02*
X128231250Y-90131250D01*
X128231250Y-105131250D02*
X128231250Y-104131250D01*
X128231250Y-105131250D02*
X129231250Y-105131250D01*
X129231250Y-90131250D02*
X128231250Y-90131250D01*
X142231250Y-105131250D02*
X143231250Y-105131250D01*
X143231250Y-90131250D02*
X142231250Y-90131250D01*
X143231250Y-90131250D02*
X143231250Y-91131250D01*
X143231250Y-104131250D02*
X143231250Y-105131250D01*
%TO.C,SW5*%
X109181250Y-33981250D02*
X109181250Y-32981250D01*
X109181250Y-47981250D02*
X109181250Y-46981250D01*
X109181250Y-47981250D02*
X110181250Y-47981250D01*
X110181250Y-32981250D02*
X109181250Y-32981250D01*
X123181250Y-47981250D02*
X124181250Y-47981250D01*
X124181250Y-32981250D02*
X123181250Y-32981250D01*
X124181250Y-32981250D02*
X124181250Y-33981250D01*
X124181250Y-46981250D02*
X124181250Y-47981250D01*
%TO.C,SW34*%
X142518750Y-72081250D02*
X142518750Y-71081250D01*
X142518750Y-86081250D02*
X142518750Y-85081250D01*
X142518750Y-86081250D02*
X143518750Y-86081250D01*
X143518750Y-71081250D02*
X142518750Y-71081250D01*
X156518750Y-86081250D02*
X157518750Y-86081250D01*
X157518750Y-71081250D02*
X156518750Y-71081250D01*
X157518750Y-71081250D02*
X157518750Y-72081250D01*
X157518750Y-85081250D02*
X157518750Y-86081250D01*
%TO.C,SW31*%
X85368750Y-72081250D02*
X85368750Y-71081250D01*
X85368750Y-86081250D02*
X85368750Y-85081250D01*
X85368750Y-86081250D02*
X86368750Y-86081250D01*
X86368750Y-71081250D02*
X85368750Y-71081250D01*
X99368750Y-86081250D02*
X100368750Y-86081250D01*
X100368750Y-71081250D02*
X99368750Y-71081250D01*
X100368750Y-71081250D02*
X100368750Y-72081250D01*
X100368750Y-85081250D02*
X100368750Y-86081250D01*
%TO.C,SW4*%
X90131250Y-33981250D02*
X90131250Y-32981250D01*
X90131250Y-47981250D02*
X90131250Y-46981250D01*
X90131250Y-47981250D02*
X91131250Y-47981250D01*
X91131250Y-32981250D02*
X90131250Y-32981250D01*
X104131250Y-47981250D02*
X105131250Y-47981250D01*
X105131250Y-32981250D02*
X104131250Y-32981250D01*
X105131250Y-32981250D02*
X105131250Y-33981250D01*
X105131250Y-46981250D02*
X105131250Y-47981250D01*
%TO.C,SW37*%
X199668750Y-72081250D02*
X199668750Y-71081250D01*
X199668750Y-86081250D02*
X199668750Y-85081250D01*
X199668750Y-86081250D02*
X200668750Y-86081250D01*
X200668750Y-71081250D02*
X199668750Y-71081250D01*
X213668750Y-86081250D02*
X214668750Y-86081250D01*
X214668750Y-71081250D02*
X213668750Y-71081250D01*
X214668750Y-71081250D02*
X214668750Y-72081250D01*
X214668750Y-85081250D02*
X214668750Y-86081250D01*
%TO.C,SW9*%
X185381250Y-33981250D02*
X185381250Y-32981250D01*
X185381250Y-47981250D02*
X185381250Y-46981250D01*
X185381250Y-47981250D02*
X186381250Y-47981250D01*
X186381250Y-32981250D02*
X185381250Y-32981250D01*
X199381250Y-47981250D02*
X200381250Y-47981250D01*
X200381250Y-32981250D02*
X199381250Y-32981250D01*
X200381250Y-32981250D02*
X200381250Y-33981250D01*
X200381250Y-46981250D02*
X200381250Y-47981250D01*
%TO.C,SW24*%
X213956250Y-53031250D02*
X213956250Y-52031250D01*
X213956250Y-67031250D02*
X213956250Y-66031250D01*
X213956250Y-67031250D02*
X214956250Y-67031250D01*
X214956250Y-52031250D02*
X213956250Y-52031250D01*
X227956250Y-67031250D02*
X228956250Y-67031250D01*
X228956250Y-52031250D02*
X227956250Y-52031250D01*
X228956250Y-52031250D02*
X228956250Y-53031250D01*
X228956250Y-66031250D02*
X228956250Y-67031250D01*
%TO.C,SW26*%
X252056250Y-53031250D02*
X252056250Y-52031250D01*
X252056250Y-67031250D02*
X252056250Y-66031250D01*
X252056250Y-67031250D02*
X253056250Y-67031250D01*
X253056250Y-52031250D02*
X252056250Y-52031250D01*
X266056250Y-67031250D02*
X267056250Y-67031250D01*
X267056250Y-52031250D02*
X266056250Y-52031250D01*
X267056250Y-52031250D02*
X267056250Y-53031250D01*
X267056250Y-66031250D02*
X267056250Y-67031250D01*
%TO.C,SW17*%
X80606250Y-53031250D02*
X80606250Y-52031250D01*
X80606250Y-67031250D02*
X80606250Y-66031250D01*
X80606250Y-67031250D02*
X81606250Y-67031250D01*
X81606250Y-52031250D02*
X80606250Y-52031250D01*
X94606250Y-67031250D02*
X95606250Y-67031250D01*
X95606250Y-52031250D02*
X94606250Y-52031250D01*
X95606250Y-52031250D02*
X95606250Y-53031250D01*
X95606250Y-66031250D02*
X95606250Y-67031250D01*
%TO.C,SW36*%
X180618750Y-72081250D02*
X180618750Y-71081250D01*
X180618750Y-86081250D02*
X180618750Y-85081250D01*
X180618750Y-86081250D02*
X181618750Y-86081250D01*
X181618750Y-71081250D02*
X180618750Y-71081250D01*
X194618750Y-86081250D02*
X195618750Y-86081250D01*
X195618750Y-71081250D02*
X194618750Y-71081250D01*
X195618750Y-71081250D02*
X195618750Y-72081250D01*
X195618750Y-85081250D02*
X195618750Y-86081250D01*
%TO.C,SW28*%
X294918750Y-53031250D02*
X294918750Y-52031250D01*
X294918750Y-67031250D02*
X294918750Y-66031250D01*
X294918750Y-67031250D02*
X295918750Y-67031250D01*
X295918750Y-52031250D02*
X294918750Y-52031250D01*
X308918750Y-67031250D02*
X309918750Y-67031250D01*
X309918750Y-52031250D02*
X308918750Y-52031250D01*
X309918750Y-52031250D02*
X309918750Y-53031250D01*
X309918750Y-66031250D02*
X309918750Y-67031250D01*
%TO.C,SW56*%
X35362500Y-110181250D02*
X35362500Y-109181250D01*
X35362500Y-124181250D02*
X35362500Y-123181250D01*
X35362500Y-124181250D02*
X36362500Y-124181250D01*
X36362500Y-109181250D02*
X35362500Y-109181250D01*
X49362500Y-124181250D02*
X50362500Y-124181250D01*
X50362500Y-109181250D02*
X49362500Y-109181250D01*
X50362500Y-109181250D02*
X50362500Y-110181250D01*
X50362500Y-123181250D02*
X50362500Y-124181250D01*
%TO.C,SW50*%
X204431250Y-91131250D02*
X204431250Y-90131250D01*
X204431250Y-105131250D02*
X204431250Y-104131250D01*
X204431250Y-105131250D02*
X205431250Y-105131250D01*
X205431250Y-90131250D02*
X204431250Y-90131250D01*
X218431250Y-105131250D02*
X219431250Y-105131250D01*
X219431250Y-90131250D02*
X218431250Y-90131250D01*
X219431250Y-90131250D02*
X219431250Y-91131250D01*
X219431250Y-104131250D02*
X219431250Y-105131250D01*
%TO.C,SW21*%
X156806250Y-53031250D02*
X156806250Y-52031250D01*
X156806250Y-67031250D02*
X156806250Y-66031250D01*
X156806250Y-67031250D02*
X157806250Y-67031250D01*
X157806250Y-52031250D02*
X156806250Y-52031250D01*
X170806250Y-67031250D02*
X171806250Y-67031250D01*
X171806250Y-52031250D02*
X170806250Y-52031250D01*
X171806250Y-52031250D02*
X171806250Y-53031250D01*
X171806250Y-66031250D02*
X171806250Y-67031250D01*
%TO.C,SW2*%
X52031250Y-33981250D02*
X52031250Y-32981250D01*
X52031250Y-47981250D02*
X52031250Y-46981250D01*
X52031250Y-47981250D02*
X53031250Y-47981250D01*
X53031250Y-32981250D02*
X52031250Y-32981250D01*
X66031250Y-47981250D02*
X67031250Y-47981250D01*
X67031250Y-32981250D02*
X66031250Y-32981250D01*
X67031250Y-32981250D02*
X67031250Y-33981250D01*
X67031250Y-46981250D02*
X67031250Y-47981250D01*
%TO.C,SW30*%
X66318750Y-72081250D02*
X66318750Y-71081250D01*
X66318750Y-86081250D02*
X66318750Y-85081250D01*
X66318750Y-86081250D02*
X67318750Y-86081250D01*
X67318750Y-71081250D02*
X66318750Y-71081250D01*
X80318750Y-86081250D02*
X81318750Y-86081250D01*
X81318750Y-71081250D02*
X80318750Y-71081250D01*
X81318750Y-71081250D02*
X81318750Y-72081250D01*
X81318750Y-85081250D02*
X81318750Y-86081250D01*
%TO.C,SW7*%
X147281250Y-33981250D02*
X147281250Y-32981250D01*
X147281250Y-47981250D02*
X147281250Y-46981250D01*
X147281250Y-47981250D02*
X148281250Y-47981250D01*
X148281250Y-32981250D02*
X147281250Y-32981250D01*
X161281250Y-47981250D02*
X162281250Y-47981250D01*
X162281250Y-32981250D02*
X161281250Y-32981250D01*
X162281250Y-32981250D02*
X162281250Y-33981250D01*
X162281250Y-46981250D02*
X162281250Y-47981250D01*
%TO.C,SW22*%
X175856250Y-53031250D02*
X175856250Y-52031250D01*
X175856250Y-67031250D02*
X175856250Y-66031250D01*
X175856250Y-67031250D02*
X176856250Y-67031250D01*
X176856250Y-52031250D02*
X175856250Y-52031250D01*
X189856250Y-67031250D02*
X190856250Y-67031250D01*
X190856250Y-52031250D02*
X189856250Y-52031250D01*
X190856250Y-52031250D02*
X190856250Y-53031250D01*
X190856250Y-66031250D02*
X190856250Y-67031250D01*
%TO.C,SW39*%
X237768750Y-72081250D02*
X237768750Y-71081250D01*
X237768750Y-86081250D02*
X237768750Y-85081250D01*
X237768750Y-86081250D02*
X238768750Y-86081250D01*
X238768750Y-71081250D02*
X237768750Y-71081250D01*
X251768750Y-86081250D02*
X252768750Y-86081250D01*
X252768750Y-71081250D02*
X251768750Y-71081250D01*
X252768750Y-71081250D02*
X252768750Y-72081250D01*
X252768750Y-85081250D02*
X252768750Y-86081250D01*
%TO.C,SW61*%
X242531250Y-110181250D02*
X242531250Y-109181250D01*
X242531250Y-124181250D02*
X242531250Y-123181250D01*
X242531250Y-124181250D02*
X243531250Y-124181250D01*
X243531250Y-109181250D02*
X242531250Y-109181250D01*
X256531250Y-124181250D02*
X257531250Y-124181250D01*
X257531250Y-109181250D02*
X256531250Y-109181250D01*
X257531250Y-109181250D02*
X257531250Y-110181250D01*
X257531250Y-123181250D02*
X257531250Y-124181250D01*
%TO.C,SW58*%
X82987500Y-110181250D02*
X82987500Y-109181250D01*
X82987500Y-124181250D02*
X82987500Y-123181250D01*
X82987500Y-124181250D02*
X83987500Y-124181250D01*
X83987500Y-109181250D02*
X82987500Y-109181250D01*
X96987500Y-124181250D02*
X97987500Y-124181250D01*
X97987500Y-109181250D02*
X96987500Y-109181250D01*
X97987500Y-109181250D02*
X97987500Y-110181250D01*
X97987500Y-123181250D02*
X97987500Y-124181250D01*
%TO.C,SW23*%
X194906250Y-53031250D02*
X194906250Y-52031250D01*
X194906250Y-67031250D02*
X194906250Y-66031250D01*
X194906250Y-67031250D02*
X195906250Y-67031250D01*
X195906250Y-52031250D02*
X194906250Y-52031250D01*
X208906250Y-67031250D02*
X209906250Y-67031250D01*
X209906250Y-52031250D02*
X208906250Y-52031250D01*
X209906250Y-52031250D02*
X209906250Y-53031250D01*
X209906250Y-66031250D02*
X209906250Y-67031250D01*
%TO.C,SW19*%
X118706250Y-53031250D02*
X118706250Y-52031250D01*
X118706250Y-67031250D02*
X118706250Y-66031250D01*
X118706250Y-67031250D02*
X119706250Y-67031250D01*
X119706250Y-52031250D02*
X118706250Y-52031250D01*
X132706250Y-67031250D02*
X133706250Y-67031250D01*
X133706250Y-52031250D02*
X132706250Y-52031250D01*
X133706250Y-52031250D02*
X133706250Y-53031250D01*
X133706250Y-66031250D02*
X133706250Y-67031250D01*
%TO.C,SW42*%
X42506250Y-91131250D02*
X42506250Y-90131250D01*
X42506250Y-105131250D02*
X42506250Y-104131250D01*
X42506250Y-105131250D02*
X43506250Y-105131250D01*
X43506250Y-90131250D02*
X42506250Y-90131250D01*
X56506250Y-105131250D02*
X57506250Y-105131250D01*
X57506250Y-90131250D02*
X56506250Y-90131250D01*
X57506250Y-90131250D02*
X57506250Y-91131250D01*
X57506250Y-104131250D02*
X57506250Y-105131250D01*
%TO.C,SW38*%
X218718750Y-72081250D02*
X218718750Y-71081250D01*
X218718750Y-86081250D02*
X218718750Y-85081250D01*
X218718750Y-86081250D02*
X219718750Y-86081250D01*
X219718750Y-71081250D02*
X218718750Y-71081250D01*
X232718750Y-86081250D02*
X233718750Y-86081250D01*
X233718750Y-71081250D02*
X232718750Y-71081250D01*
X233718750Y-71081250D02*
X233718750Y-72081250D01*
X233718750Y-85081250D02*
X233718750Y-86081250D01*
%TO.C,SW43*%
X71081250Y-91131250D02*
X71081250Y-90131250D01*
X71081250Y-105131250D02*
X71081250Y-104131250D01*
X71081250Y-105131250D02*
X72081250Y-105131250D01*
X72081250Y-90131250D02*
X71081250Y-90131250D01*
X85081250Y-105131250D02*
X86081250Y-105131250D01*
X86081250Y-90131250D02*
X85081250Y-90131250D01*
X86081250Y-90131250D02*
X86081250Y-91131250D01*
X86081250Y-104131250D02*
X86081250Y-105131250D01*
%TO.C,SW57*%
X59175000Y-110181250D02*
X59175000Y-109181250D01*
X59175000Y-124181250D02*
X59175000Y-123181250D01*
X59175000Y-124181250D02*
X60175000Y-124181250D01*
X60175000Y-109181250D02*
X59175000Y-109181250D01*
X73175000Y-124181250D02*
X74175000Y-124181250D01*
X74175000Y-109181250D02*
X73175000Y-109181250D01*
X74175000Y-109181250D02*
X74175000Y-110181250D01*
X74175000Y-123181250D02*
X74175000Y-124181250D01*
%TO.C,SW44*%
X90131250Y-91131250D02*
X90131250Y-90131250D01*
X90131250Y-105131250D02*
X90131250Y-104131250D01*
X90131250Y-105131250D02*
X91131250Y-105131250D01*
X91131250Y-90131250D02*
X90131250Y-90131250D01*
X104131250Y-105131250D02*
X105131250Y-105131250D01*
X105131250Y-90131250D02*
X104131250Y-90131250D01*
X105131250Y-90131250D02*
X105131250Y-91131250D01*
X105131250Y-104131250D02*
X105131250Y-105131250D01*
%TO.C,SW20*%
X137756250Y-53031250D02*
X137756250Y-52031250D01*
X137756250Y-67031250D02*
X137756250Y-66031250D01*
X137756250Y-67031250D02*
X138756250Y-67031250D01*
X138756250Y-52031250D02*
X137756250Y-52031250D01*
X151756250Y-67031250D02*
X152756250Y-67031250D01*
X152756250Y-52031250D02*
X151756250Y-52031250D01*
X152756250Y-52031250D02*
X152756250Y-53031250D01*
X152756250Y-66031250D02*
X152756250Y-67031250D01*
%TO.C,SW12*%
X242531250Y-33981250D02*
X242531250Y-32981250D01*
X242531250Y-47981250D02*
X242531250Y-46981250D01*
X242531250Y-47981250D02*
X243531250Y-47981250D01*
X243531250Y-32981250D02*
X242531250Y-32981250D01*
X256531250Y-47981250D02*
X257531250Y-47981250D01*
X257531250Y-32981250D02*
X256531250Y-32981250D01*
X257531250Y-32981250D02*
X257531250Y-33981250D01*
X257531250Y-46981250D02*
X257531250Y-47981250D01*
%TO.C,SW35*%
X161568750Y-72081250D02*
X161568750Y-71081250D01*
X161568750Y-86081250D02*
X161568750Y-85081250D01*
X161568750Y-86081250D02*
X162568750Y-86081250D01*
X162568750Y-71081250D02*
X161568750Y-71081250D01*
X175568750Y-86081250D02*
X176568750Y-86081250D01*
X176568750Y-71081250D02*
X175568750Y-71081250D01*
X176568750Y-71081250D02*
X176568750Y-72081250D01*
X176568750Y-85081250D02*
X176568750Y-86081250D01*
%TO.C,SW45*%
X109181250Y-91131250D02*
X109181250Y-90131250D01*
X109181250Y-105131250D02*
X109181250Y-104131250D01*
X109181250Y-105131250D02*
X110181250Y-105131250D01*
X110181250Y-90131250D02*
X109181250Y-90131250D01*
X123181250Y-105131250D02*
X124181250Y-105131250D01*
X124181250Y-90131250D02*
X123181250Y-90131250D01*
X124181250Y-90131250D02*
X124181250Y-91131250D01*
X124181250Y-104131250D02*
X124181250Y-105131250D01*
%TO.C,SW18*%
X99656250Y-53031250D02*
X99656250Y-52031250D01*
X99656250Y-67031250D02*
X99656250Y-66031250D01*
X99656250Y-67031250D02*
X100656250Y-67031250D01*
X100656250Y-52031250D02*
X99656250Y-52031250D01*
X113656250Y-67031250D02*
X114656250Y-67031250D01*
X114656250Y-52031250D02*
X113656250Y-52031250D01*
X114656250Y-52031250D02*
X114656250Y-53031250D01*
X114656250Y-66031250D02*
X114656250Y-67031250D01*
%TO.C,SW62*%
X261581250Y-110181250D02*
X261581250Y-109181250D01*
X261581250Y-124181250D02*
X261581250Y-123181250D01*
X261581250Y-124181250D02*
X262581250Y-124181250D01*
X262581250Y-109181250D02*
X261581250Y-109181250D01*
X275581250Y-124181250D02*
X276581250Y-124181250D01*
X276581250Y-109181250D02*
X275581250Y-109181250D01*
X276581250Y-109181250D02*
X276581250Y-110181250D01*
X276581250Y-123181250D02*
X276581250Y-124181250D01*
%TO.C,SW33*%
X123468750Y-72081250D02*
X123468750Y-71081250D01*
X123468750Y-86081250D02*
X123468750Y-85081250D01*
X123468750Y-86081250D02*
X124468750Y-86081250D01*
X124468750Y-71081250D02*
X123468750Y-71081250D01*
X137468750Y-86081250D02*
X138468750Y-86081250D01*
X138468750Y-71081250D02*
X137468750Y-71081250D01*
X138468750Y-71081250D02*
X138468750Y-72081250D01*
X138468750Y-85081250D02*
X138468750Y-86081250D01*
%TO.C,SW29*%
X40125000Y-72081250D02*
X40125000Y-71081250D01*
X40125000Y-86081250D02*
X40125000Y-85081250D01*
X40125000Y-86081250D02*
X41125000Y-86081250D01*
X41125000Y-71081250D02*
X40125000Y-71081250D01*
X54125000Y-86081250D02*
X55125000Y-86081250D01*
X55125000Y-71081250D02*
X54125000Y-71081250D01*
X55125000Y-71081250D02*
X55125000Y-72081250D01*
X55125000Y-85081250D02*
X55125000Y-86081250D01*
%TO.C,SW13*%
X261581250Y-33981250D02*
X261581250Y-32981250D01*
X261581250Y-47981250D02*
X261581250Y-46981250D01*
X261581250Y-47981250D02*
X262581250Y-47981250D01*
X262581250Y-32981250D02*
X261581250Y-32981250D01*
X275581250Y-47981250D02*
X276581250Y-47981250D01*
X276581250Y-32981250D02*
X275581250Y-32981250D01*
X276581250Y-32981250D02*
X276581250Y-33981250D01*
X276581250Y-46981250D02*
X276581250Y-47981250D01*
%TO.C,SW47*%
X147281250Y-91131250D02*
X147281250Y-90131250D01*
X147281250Y-105131250D02*
X147281250Y-104131250D01*
X147281250Y-105131250D02*
X148281250Y-105131250D01*
X148281250Y-90131250D02*
X147281250Y-90131250D01*
X161281250Y-105131250D02*
X162281250Y-105131250D01*
X162281250Y-90131250D02*
X161281250Y-90131250D01*
X162281250Y-90131250D02*
X162281250Y-91131250D01*
X162281250Y-104131250D02*
X162281250Y-105131250D01*
%TO.C,SW60*%
X223481250Y-110181250D02*
X223481250Y-109181250D01*
X223481250Y-124181250D02*
X223481250Y-123181250D01*
X223481250Y-124181250D02*
X224481250Y-124181250D01*
X224481250Y-109181250D02*
X223481250Y-109181250D01*
X237481250Y-124181250D02*
X238481250Y-124181250D01*
X238481250Y-109181250D02*
X237481250Y-109181250D01*
X238481250Y-109181250D02*
X238481250Y-110181250D01*
X238481250Y-123181250D02*
X238481250Y-124181250D01*
%TO.C,SW41*%
X287775000Y-72081250D02*
X287775000Y-71081250D01*
X287775000Y-86081250D02*
X287775000Y-85081250D01*
X287775000Y-86081250D02*
X288775000Y-86081250D01*
X288775000Y-71081250D02*
X287775000Y-71081250D01*
X301775000Y-86081250D02*
X302775000Y-86081250D01*
X302775000Y-71081250D02*
X301775000Y-71081250D01*
X302775000Y-71081250D02*
X302775000Y-72081250D01*
X302775000Y-85081250D02*
X302775000Y-86081250D01*
%TO.C,SW25*%
X233006250Y-53031250D02*
X233006250Y-52031250D01*
X233006250Y-67031250D02*
X233006250Y-66031250D01*
X233006250Y-67031250D02*
X234006250Y-67031250D01*
X234006250Y-52031250D02*
X233006250Y-52031250D01*
X247006250Y-67031250D02*
X248006250Y-67031250D01*
X248006250Y-52031250D02*
X247006250Y-52031250D01*
X248006250Y-52031250D02*
X248006250Y-53031250D01*
X248006250Y-66031250D02*
X248006250Y-67031250D01*
%TO.C,SW48*%
X166331250Y-91131250D02*
X166331250Y-90131250D01*
X166331250Y-105131250D02*
X166331250Y-104131250D01*
X166331250Y-105131250D02*
X167331250Y-105131250D01*
X167331250Y-90131250D02*
X166331250Y-90131250D01*
X180331250Y-105131250D02*
X181331250Y-105131250D01*
X181331250Y-90131250D02*
X180331250Y-90131250D01*
X181331250Y-90131250D02*
X181331250Y-91131250D01*
X181331250Y-104131250D02*
X181331250Y-105131250D01*
%TD*%
M02*
