M48
; DRILL file {KiCad 9.0.6} date 2025-12-27T23:18:11-0800
; FORMAT={-:-/ absolute / metric / decimal}
; #@! TF.CreationDate,2025-12-27T23:18:11-08:00
; #@! TF.GenerationSoftware,Kicad,Pcbnew,9.0.6
; #@! TF.FileFunction,NonPlated,1,2,NPTH
FMAT,2
METRIC
; #@! TA.AperFunction,NonPlated,NPTH,ComponentDrill
T1C0.900
; #@! TA.AperFunction,NonPlated,NPTH,ComponentDrill
T2C3.000
; #@! TA.AperFunction,NonPlated,NPTH,ComponentDrill
T3C3.200
; #@! TA.AperFunction,NonPlated,NPTH,ComponentDrill
T4C5.000
; #@! TA.AperFunction,NonPlated,NPTH,ComponentDrill
T5C5.100
%
G90
G05
T1
X32.766Y-57.428
X32.766Y-60.428
T2
X36.081Y-45.181
X38.462Y-121.381
X40.844Y-64.231
X43.081Y-46.231
X43.225Y-83.281
X45.462Y-122.431
X45.606Y-102.331
X47.844Y-65.281
X50.225Y-84.331
X52.606Y-103.381
X55.131Y-45.181
X62.131Y-46.231
X62.275Y-121.381
X64.656Y-64.231
X69.275Y-122.431
X69.419Y-83.281
X71.656Y-65.281
X74.181Y-45.181
X74.181Y-102.331
X76.419Y-84.331
X81.181Y-46.231
X81.181Y-103.381
X83.706Y-64.231
X86.087Y-121.381
X88.469Y-83.281
X90.706Y-65.281
X93.087Y-122.431
X93.231Y-45.181
X93.231Y-102.331
X95.469Y-84.331
X100.231Y-46.231
X100.231Y-103.381
X102.756Y-64.231
X107.519Y-83.281
X109.756Y-65.281
X112.281Y-45.181
X112.281Y-102.331
X114.519Y-84.331
X119.281Y-46.231
X119.281Y-103.381
X121.806Y-64.231
X126.569Y-83.281
X128.806Y-65.281
X131.331Y-45.181
X131.331Y-102.331
X133.569Y-84.331
X138.331Y-46.231
X138.331Y-103.381
X140.856Y-64.231
X145.619Y-83.281
X147.856Y-65.281
X150.381Y-45.181
X150.381Y-102.331
X152.619Y-84.331
X157.381Y-46.231
X157.381Y-103.381
X157.525Y-121.381
X159.906Y-64.231
X164.525Y-122.431
X164.669Y-83.281
X166.906Y-65.281
X169.431Y-45.181
X169.431Y-102.331
X171.669Y-84.331
X176.431Y-46.231
X176.431Y-103.381
X178.956Y-64.231
X183.719Y-83.281
X185.956Y-65.281
X188.481Y-45.181
X188.481Y-102.331
X190.719Y-84.331
X195.481Y-46.231
X195.481Y-103.381
X198.006Y-64.231
X202.769Y-83.281
X205.006Y-65.281
X207.531Y-45.181
X207.531Y-102.331
X209.769Y-84.331
X214.531Y-46.231
X214.531Y-103.381
X217.056Y-64.231
X221.819Y-83.281
X224.056Y-65.281
X226.581Y-45.181
X226.581Y-102.331
X226.581Y-121.381
X228.819Y-84.331
X233.581Y-46.231
X233.581Y-103.381
X233.581Y-122.431
X236.106Y-64.231
X240.869Y-83.281
X243.106Y-65.281
X245.631Y-45.181
X245.631Y-102.331
X245.631Y-121.381
X247.869Y-84.331
X252.631Y-46.231
X252.631Y-103.381
X252.631Y-122.431
X255.156Y-64.231
X259.919Y-83.281
X262.156Y-65.281
X264.681Y-45.181
X264.681Y-102.331
X264.681Y-121.381
X266.919Y-84.331
X271.681Y-46.231
X271.681Y-103.381
X271.681Y-122.431
X274.206Y-64.231
X281.206Y-65.281
X283.731Y-102.331
X283.731Y-121.381
X290.731Y-103.381
X290.731Y-122.431
X290.875Y-83.281
X293.256Y-45.181
X297.875Y-84.331
X298.019Y-64.231
X300.256Y-46.231
X302.781Y-102.331
X302.781Y-121.381
X305.019Y-65.281
X309.781Y-103.381
X309.781Y-122.431
T3
X121.444Y-73.819
X164.306Y-35.719
X216.694Y-73.819
T4
X54.769Y-116.681
X57.15Y-57.15
X150.019Y-116.681
X290.512Y-57.15
X297.656Y-112.141
T5
X40.481Y-40.481
X42.862Y-116.681
X45.244Y-59.531
X47.625Y-78.581
X50.006Y-97.631
X59.531Y-40.481
X66.675Y-116.681
X69.056Y-59.531
X73.819Y-78.581
X78.581Y-40.481
X78.581Y-97.631
X88.106Y-59.531
X90.487Y-116.681
X92.869Y-78.581
X97.631Y-40.481
X97.631Y-97.631
X107.156Y-59.531
X111.919Y-78.581
X116.681Y-40.481
X116.681Y-97.631
X126.206Y-59.531
X130.969Y-78.581
X135.731Y-40.481
X135.731Y-97.631
X145.256Y-59.531
X150.019Y-78.581
X154.781Y-40.481
X154.781Y-97.631
X161.925Y-116.681
X164.306Y-59.531
X169.069Y-78.581
X173.831Y-40.481
X173.831Y-97.631
X183.356Y-59.531
X188.119Y-78.581
X192.881Y-40.481
X192.881Y-97.631
X202.406Y-59.531
X207.169Y-78.581
X211.931Y-40.481
X211.931Y-97.631
X221.456Y-59.531
X226.219Y-78.581
X230.981Y-40.481
X230.981Y-97.631
X230.981Y-116.681
X240.506Y-59.531
X245.269Y-78.581
X250.031Y-40.481
X250.031Y-97.631
X250.031Y-116.681
X259.556Y-59.531
X264.319Y-78.581
X269.081Y-40.481
X269.081Y-97.631
X269.081Y-116.681
X278.606Y-59.531
X288.131Y-97.631
X288.131Y-116.681
X295.275Y-78.581
X297.656Y-40.481
X302.419Y-59.531
X307.181Y-97.631
X307.181Y-116.681
M30
