M48
; DRILL file {KiCad 9.0.6} date 2025-12-27T23:18:11-0800
; FORMAT={-:-/ absolute / metric / decimal}
; #@! TF.CreationDate,2025-12-27T23:18:11-08:00
; #@! TF.GenerationSoftware,Kicad,Pcbnew,9.0.6
; #@! TF.FileFunction,Plated,1,2,PTH
FMAT,2
METRIC
; #@! TA.AperFunction,Plated,PTH,ViaDrill
T1C0.300
; #@! TA.AperFunction,Plated,PTH,ComponentDrill
T2C1.000
%
G90
G05
T1
X34.544Y-124.714
X37.084Y-67.564
X38.354Y-58.928
X39.37Y-86.614
X41.91Y-105.664
X58.42Y-124.714
X60.833Y-67.691
X65.532Y-86.614
X70.358Y-105.664
X79.883Y-67.691
X82.169Y-124.714
X83.058Y-50.508
X83.058Y-51.308
X84.582Y-86.614
X89.408Y-105.664
X98.933Y-67.691
X103.632Y-86.614
X108.458Y-105.664
X117.983Y-67.691
X122.682Y-86.614
X127.508Y-105.664
X137.033Y-67.691
X141.732Y-86.614
X146.558Y-105.664
X149.098Y-121.412
X156.083Y-67.691
X160.782Y-86.614
X165.608Y-48.514
X165.608Y-105.664
X175.133Y-67.564
X179.832Y-86.614
X184.658Y-48.514
X184.658Y-104.394
X194.183Y-67.564
X198.882Y-86.614
X203.708Y-48.514
X203.708Y-104.902
X213.233Y-67.564
X217.932Y-86.614
X222.758Y-48.514
X222.758Y-105.664
X222.758Y-123.444
X232.283Y-67.564
X236.982Y-86.614
X241.808Y-48.514
X241.808Y-105.664
X241.808Y-123.952
X251.333Y-67.564
X256.032Y-86.614
X260.858Y-48.514
X260.858Y-105.664
X260.858Y-124.206
X270.383Y-67.564
X279.908Y-105.664
X279.908Y-124.714
X287.02Y-86.614
X289.433Y-48.514
X294.132Y-67.564
X298.958Y-105.664
X298.958Y-124.714
T2
X34.036Y-35.814
X34.036Y-51.054
X36.576Y-35.814
X36.576Y-51.054
X39.116Y-35.814
X39.116Y-51.054
X41.656Y-35.814
X41.656Y-51.054
X44.196Y-35.814
X44.196Y-51.054
X46.736Y-35.814
X46.736Y-51.054
X49.276Y-35.814
X49.276Y-51.054
X51.816Y-35.814
X51.816Y-51.054
X54.356Y-35.814
X54.356Y-51.054
X56.896Y-35.814
X56.896Y-51.054
X59.436Y-35.814
X59.436Y-51.054
X61.976Y-35.814
X61.976Y-51.054
X64.516Y-35.814
X64.516Y-51.054
M30
